<?xml version="1.0" encoding="UTF-8"?>
<svg version="1.1" xmlns="http://www.w3.org/2000/svg" width="500" height="500">
<path d="M0 0 C165 0 330 0 500 0 C500 165 500 330 500 500 C335 500 170 500 0 500 C0 335 0 170 0 0 Z " fill="#FEFEFE" transform="translate(0,0)"/>
<path d="M0 0 C1.08060196 -0.00175232 2.16120392 -0.00350464 3.27455139 -0.00531006 C6.82514072 -0.00969053 10.37567975 -0.00680525 13.92626953 -0.00341797 C16.39869191 -0.0040918 18.87111422 -0.0050625 21.34353638 -0.00631714 C26.51304763 -0.0077887 31.68254155 -0.00565585 36.85205078 -0.00097656 C43.49021713 0.00473834 50.12834321 0.00142718 56.7665081 -0.00454903 C61.86555284 -0.00815398 66.96458794 -0.00701667 72.06363297 -0.00442123 C74.51255422 -0.00375271 76.96147633 -0.0045778 79.41039658 -0.00690079 C82.82179859 -0.00942814 86.23313421 -0.00558632 89.64453125 0 C91.17179085 -0.00303635 91.17179085 -0.00303635 92.72990417 -0.00613403 C93.65506332 -0.00331421 94.58022247 -0.00049438 95.53341675 0.00241089 C96.33973478 0.00278791 97.14605282 0.00316494 97.97680473 0.00355339 C99.93408203 0.12939453 99.93408203 0.12939453 101.93408203 1.12939453 C104.26696695 1.17513737 106.60106217 1.16764076 108.93408203 1.12939453 C115.71185981 1.01828342 115.71185981 1.01828342 117.93408203 2.12939453 C117.3561672 7.23868697 116.21601813 11.64551064 114.43408203 16.50439453 C113.99064453 17.72900391 113.54720703 18.95361328 113.09033203 20.21533203 C111.93408203 23.12939453 111.93408203 23.12939453 110.93408203 24.12939453 C110.6992651 26.31232227 110.52044881 28.50142627 110.37158203 30.69189453 C110.28779297 31.88943359 110.20400391 33.08697266 110.11767578 34.32080078 C110.05708984 35.24763672 109.99650391 36.17447266 109.93408203 37.12939453 C111.58408203 37.45939453 113.23408203 37.78939453 114.93408203 38.12939453 C115.30103993 44.61231749 115.30103993 44.61231749 113.55908203 47.06689453 C111.93408203 48.12939453 111.93408203 48.12939453 109.93408203 48.12939453 C108.74509775 51.69634737 108.36516309 55.22718818 107.93408203 58.94189453 C106.63568961 69.94779907 106.63568961 69.94779907 105.93408203 73.12939453 C103.93408203 74.12939453 103.93408203 74.12939453 95.93408203 74.12939453 C95.60408203 66.20939453 95.27408203 58.28939453 94.93408203 50.12939453 C92.95408203 50.12939453 90.97408203 50.12939453 88.93408203 50.12939453 C88.93408203 49.46939453 88.93408203 48.80939453 88.93408203 48.12939453 C86.62408203 48.78939453 84.31408203 49.44939453 81.93408203 50.12939453 C82.59408203 50.45939453 83.25408203 50.78939453 83.93408203 51.12939453 C85.93408203 53.12939453 85.93408203 53.12939453 86.19970703 55.10986328 C86.18548818 57.11827596 86.06550228 59.12523576 85.93408203 61.12939453 C85.27408203 61.12939453 84.61408203 61.12939453 83.93408203 61.12939453 C83.93408203 61.78939453 83.93408203 62.44939453 83.93408203 63.12939453 C82.84095703 63.48001953 81.74783203 63.83064453 80.62158203 64.19189453 C78.3237773 65.15279469 77.18621805 65.73369352 75.83642578 67.85205078 C75.12910627 69.58302869 74.52540135 71.35543656 73.93408203 73.12939453 C72.37104542 74.69243114 70.84082345 74.25912839 68.67236328 74.26220703 C67.36428711 74.26414063 67.36428711 74.26414063 66.02978516 74.26611328 C65.11132812 74.26224609 64.19287109 74.25837891 63.24658203 74.25439453 C62.34746094 74.25826172 61.44833984 74.26212891 60.52197266 74.26611328 C55.85799666 74.25926959 51.53766369 73.94747851 46.93408203 73.12939453 C46.60408203 73.45939453 46.27408203 73.78939453 45.93408203 74.12939453 C44.18642751 74.22909294 42.43457174 74.25907499 40.68408203 74.25439453 C39.73017578 74.25697266 38.77626953 74.25955078 37.79345703 74.26220703 C34.93408203 74.12939453 34.93408203 74.12939453 32.24658203 73.59033203 C29.5381949 73.0504846 27.6028235 73.53634087 24.93408203 74.12939453 C24.60408203 73.79939453 24.27408203 73.46939453 23.93408203 73.12939453 C19.79131328 72.88206316 19.79131328 72.88206316 15.93408203 74.12939453 C12.49658203 74.50439453 12.49658203 74.50439453 8.93408203 74.12939453 C6.99658203 71.62939453 6.99658203 71.62939453 5.93408203 69.12939453 C2.9718929 69.58511594 1.60097086 70.37367605 -0.87841797 72.19189453 C-4.70965071 74.52068306 -6.6504218 74.68133155 -11.06591797 74.12939453 C-16.35440695 72.13373831 -16.35440695 72.13373831 -18.21435547 69.50830078 C-19.42299905 66.13186069 -19.39476331 62.85729464 -19.37841797 59.31689453 C-19.39453125 58.63046875 -19.41064453 57.94404297 -19.42724609 57.23681641 C-19.43207335 52.13440313 -18.25193385 48.72563306 -16.06591797 44.12939453 C-15.66827534 42.1411814 -15.31136631 40.14207091 -15.06591797 38.12939453 C-16.36529297 37.98501953 -17.66466797 37.84064453 -19.00341797 37.69189453 C-22.94091797 37.25439453 -22.94091797 37.25439453 -24.06591797 36.12939453 C-25.50277283 10.16576142 -25.50277283 10.16576142 -20.99169922 2.24267578 C-15.22603497 -1.09041613 -6.46268162 -0.01300358 0 0 Z " fill="#F38A95" transform="translate(201.06591796875,159.87060546875)"/>
<path d="M0 0 C1.33333333 0 2.66666667 0 4 0 C4.1110425 7.20542418 3.99873603 14.37081382 3.5625 21.5625 C3.52326416 22.24054688 3.48402832 22.91859375 3.44360352 23.6171875 C3.23298133 26.84484117 2.93954546 29.89713138 2 33 C4.64 33 7.28 33 10 33 C10.33 27.39 10.66 21.78 11 16 C13.60526888 18.60526888 14.34134224 21.17939234 15.625 24.625 C16.07101563 25.81351563 16.51703125 27.00203125 16.9765625 28.2265625 C17.31429687 29.14179688 17.65203125 30.05703125 18 31 C20.64 31.33 23.28 31.66 26 32 C25.99476318 31.24380371 25.98952637 30.48760742 25.98413086 29.70849609 C25.96327276 26.26400593 25.95031174 22.8195291 25.9375 19.375 C25.92912109 18.18519531 25.92074219 16.99539062 25.91210938 15.76953125 C25.90888672 14.61582031 25.90566406 13.46210938 25.90234375 12.2734375 C25.89710693 11.21560059 25.89187012 10.15776367 25.88647461 9.06787109 C26.00124422 5.96637654 26.42303718 3.04652343 27 0 C27.66 0 28.32 0 29 0 C29 2.64 29 5.28 29 8 C30.65 8 32.3 8 34 8 C34.33 7.34 34.66 6.68 35 6 C35.66 6.33 36.32 6.66 37 7 C37.495 18.385 37.495 18.385 38 30 C36.0243438 27.03651571 35.73623141 26.31979627 35.5859375 22.98828125 C35.52792969 21.85229492 35.52792969 21.85229492 35.46875 20.69335938 C35.4378125 19.90767578 35.406875 19.12199219 35.375 18.3125 C35.31699219 17.11657227 35.31699219 17.11657227 35.2578125 15.89648438 C35.16367506 13.93136525 35.08075368 11.9657146 35 10 C32.69 10 30.38 10 28 10 C27.85452455 14.06212212 27.76586774 18.12357287 27.6875 22.1875 C27.6246582 23.91323242 27.6246582 23.91323242 27.56054688 25.67382812 C27.26668124 32.36652369 27.26668124 32.36652369 30.4921875 37.9296875 C31.31976563 38.61289063 32.14734375 39.29609375 33 40 C33.55859375 42.90234375 33.55859375 42.90234375 33.4375 45.9375 C33.39625 46.99453125 33.355 48.0515625 33.3125 49.140625 C32.96693123 52.30257929 32.00282695 54.99151914 31 58 C31.11588914 61.03831094 31.50693132 64.00160937 32 67 C31.01 67.33 30.02 67.66 29 68 C29 68.66 29 69.32 29 70 C27.34385343 70.38218767 25.67542976 70.71395102 24 71 C23.67 70.67 23.34 70.34 23 70 C18.85723125 69.75266863 18.85723125 69.75266863 15 71 C11.5625 71.375 11.5625 71.375 8 71 C6.0625 68.5 6.0625 68.5 5 66 C2.03781087 66.4557214 0.66688883 67.24428152 -1.8125 69.0625 C-5.64373274 71.39128853 -7.58450383 71.55193702 -12 71 C-17.29410675 69.00222387 -17.29410675 69.00222387 -19.14453125 66.375 C-21.33021256 60.30698978 -20.95399193 51.50140823 -19.27734375 45.34765625 C-17.28366283 41.14236168 -14.45684505 38.07275116 -11 35 C-13.31 34.67 -15.62 34.34 -18 34 C-16 32 -16 32 -12.5234375 31.8046875 C-11.14049032 31.81798507 -9.75761346 31.84183768 -8.375 31.875 C-7.31539062 31.88853516 -7.31539062 31.88853516 -6.234375 31.90234375 C-4.48943902 31.92592397 -2.74467705 31.96179539 -1 32 C-1 29.36 -1 26.72 -1 24 C-5.62 24 -10.24 24 -15 24 C-15.33 23.01 -15.66 22.02 -16 21 C-16.66 20.67 -17.32 20.34 -18 20 C-17.01 18.68 -16.02 17.36 -15 16 C-14.67 16.99 -14.34 17.98 -14 19 C-10.37 18.67 -6.74 18.34 -3 18 C-3.495 15.525 -3.495 15.525 -4 13 C-7.3 12.67 -10.6 12.34 -14 12 C-14 10.35 -14 8.7 -14 7 C-9.38 6.67 -4.76 6.34 0 6 C0 4.02 0 2.04 0 0 Z " fill="#F38995" transform="translate(202,163)"/>
<path d="M0 0 C14.76083348 1.16692421 29.59843667 0.74253815 44.375 0.0625 C54.18930615 -0.38656672 63.98963664 -0.54968269 73.8125 -0.5625 C75.11840088 -0.56701172 76.42430176 -0.57152344 77.76977539 -0.57617188 C93.35228767 -0.55189847 93.35228767 -0.55189847 99.36523438 1.14013672 C101.49010509 1.7454145 101.49010509 1.7454145 104.3125 0.875 C105.3025 0.771875 106.2925 0.66875 107.3125 0.5625 C109.6875 2.5 109.6875 2.5 111.3125 4.5625 C112.17875 4.211875 113.045 3.86125 113.9375 3.5 C117.61939596 2.47725112 119.65321289 2.5866901 123.3125 3.5625 C126.37102825 5.60151883 127.03345054 6.28717707 128.3125 9.5625 C129.26255425 15.43957976 128.12125487 19.68276856 125.265625 24.80078125 C124.04081389 27.06467391 123.62382361 29.00964638 123.3125 31.5625 C123.14234375 32.63371094 123.14234375 32.63371094 122.96875 33.7265625 C122.79859375 34.91378906 122.79859375 34.91378906 122.625 36.125 C122.51800781 36.86878906 122.41101563 37.61257812 122.30078125 38.37890625 C122.32326932 42.56918241 124.80728081 45.37403921 127.3125 48.5625 C126.5427804 49.9589478 125.77166631 51.35462699 125 52.75 C124.54496094 53.57886719 124.08992187 54.40773437 123.62109375 55.26171875 C122.3125 57.5625 122.3125 57.5625 120.5625 60.0625 C118.71631385 63.75487231 118.62596215 67.48749202 118.3125 71.5625 C117.84827424 76.43687052 115.76163145 80.12259083 112.3125 83.5625 C109.13549086 84.66472766 107.35929673 84.8316763 104.125 84 C101.26272386 81.72991892 100.50356352 80.07613738 99.3125 76.5625 C98.85338217 70.11025476 99.12514179 63.92061169 100.3125 57.5625 C98.6625 57.5625 97.0125 57.5625 95.3125 57.5625 C95.209375 58.201875 95.10625 58.84125 95 59.5 C94.773125 60.510625 94.54625 61.52125 94.3125 62.5625 C94.17457031 63.20574219 94.03664063 63.84898437 93.89453125 64.51171875 C91.94832547 71.78713231 87.9641176 77.61229571 82.3125 82.5625 C76.3100444 85.47408539 70.00900993 87.18105313 63.3125 86.5625 C62.11173828 85.80839844 62.11173828 85.80839844 60.88671875 85.0390625 C57.39048334 83.0336346 55.08613163 83.49505537 51.125 83.9375 C44.4816113 84.64705565 44.4816113 84.64705565 42.3125 83.5625 C40.09618209 83.48871497 37.87760296 83.47903812 35.66015625 83.5 C35.00421982 83.50378662 34.34828339 83.50757324 33.67247009 83.51147461 C30.86368244 83.52783887 28.0550396 83.55594841 25.24633789 83.58300781 C23.19678417 83.60108441 21.14725408 83.61318522 19.09765625 83.625 C17.86926025 83.63660156 16.64086426 83.64820313 15.37524414 83.66015625 C12.3125 83.5625 12.3125 83.5625 9.3125 82.5625 C7.15790462 83.39683767 7.15790462 83.39683767 4.9375 84.625 C0.6867672 86.6326751 0.6867672 86.6326751 -2.6875 86 C-4.6875 84.5625 -4.6875 84.5625 -5.6875 81.5625 C-6.63625 81.459375 -7.585 81.35625 -8.5625 81.25 C-11.6875 80.5625 -11.6875 80.5625 -13.6875 77.5625 C-14.07763716 75.5728005 -14.41952649 73.57230131 -14.6875 71.5625 C-15.6775 72.0575 -15.6775 72.0575 -16.6875 72.5625 C-16.81125 71.428125 -16.935 70.29375 -17.0625 69.125 C-17.26875 67.949375 -17.475 66.77375 -17.6875 65.5625 C-18.3475 65.2325 -19.0075 64.9025 -19.6875 64.5625 C-20.03583144 59.68585991 -19.10435712 56.79199995 -16.6875 52.5625 C-16.0275 52.5625 -15.3675 52.5625 -14.6875 52.5625 C-14.6875 50.2525 -14.6875 47.9425 -14.6875 45.5625 C-15.3475 45.5625 -16.0075 45.5625 -16.6875 45.5625 C-18.3125 44.3125 -18.3125 44.3125 -19.6875 42.5625 C-19.6875 41.2425 -19.6875 39.9225 -19.6875 38.5625 C-20.3475 38.5625 -21.0075 38.5625 -21.6875 38.5625 C-23.47457249 34.98835501 -23.20628001 30.87951879 -23.4375 26.9375 C-23.50582031 26.05964844 -23.57414063 25.18179688 -23.64453125 24.27734375 C-24.10415351 16.34591344 -22.34143175 10.15556998 -17.6875 3.5625 C-14.46311731 1.41291154 -12.45891985 1.11249873 -8.6875 0.5625 C-5.33188919 -0.55603694 -3.50087035 -0.3487952 0 0 Z M-14.6875 7.5625 C-17.433031 19.01070064 -17.8169416 29.84084407 -17.6875 41.5625 C-13.29496227 43.12522189 -13.29496227 43.12522189 -8.6875 43.5625 C-10.48007362 51.11691741 -10.48007362 51.11691741 -11.7421875 53.828125 C-12.98910418 57.4349088 -12.9789429 60.85714923 -12.9375 64.625 C-12.94910156 65.68557617 -12.94910156 65.68557617 -12.9609375 66.76757812 C-12.94693788 70.49497731 -12.89388527 73.47356062 -10.6875 76.5625 C-6.29929302 79.4199371 -2.88288178 80.21192272 2.3125 79.5625 C5.49538354 77.69071884 5.49538354 77.69071884 8.3125 75.5625 C10.6875 74.8125 10.6875 74.8125 12.3125 74.5625 C12.8384375 75.8 12.8384375 75.8 13.375 77.0625 C14.3340625 78.3 14.3340625 78.3 15.3125 79.5625 C18.73994229 79.9232834 21.19372044 80.12188978 24.3125 78.5625 C27.11729234 78.44055251 29.59778255 78.36148572 32.3125 79.125 C35.11366617 79.7377551 37.51642598 79.05957983 40.3125 78.5625 C40.6425 78.8925 40.9725 79.2225 41.3125 79.5625 C43.06015452 79.66219841 44.8120103 79.69218045 46.5625 79.6875 C47.51640625 79.69007813 48.4703125 79.69265625 49.453125 79.6953125 C52.31050871 79.63830833 52.31050871 79.63830833 55.046875 78.9921875 C57.3125 78.5625 57.3125 78.5625 59.3125 79.5625 C62.6404587 79.80049705 65.97696087 79.74768365 69.3125 79.75 C70.7046875 79.76836914 70.7046875 79.76836914 72.125 79.78710938 C73.4553125 79.79000977 73.4553125 79.79000977 74.8125 79.79296875 C76.03453125 79.79913208 76.03453125 79.79913208 77.28125 79.80541992 C79.53947834 79.74761386 79.53947834 79.74761386 81.3125 77.5625 C81.725 76.4075 82.1375 75.2525 82.5625 74.0625 C84.3125 70.5625 84.3125 70.5625 87.5 69.125 C88.428125 68.939375 89.35625 68.75375 90.3125 68.5625 C90.3125 67.9025 90.3125 67.2425 90.3125 66.5625 C90.9725 66.5625 91.6325 66.5625 92.3125 66.5625 C92.58885161 62.54119285 92.58885161 62.54119285 92.3125 58.5625 C90.47061388 56.50979537 90.47061388 56.50979537 88.3125 55.5625 C90.6225 54.9025 92.9325 54.2425 95.3125 53.5625 C95.3125 54.2225 95.3125 54.8825 95.3125 55.5625 C97.2925 55.5625 99.2725 55.5625 101.3125 55.5625 C101.8075 67.4425 101.8075 67.4425 102.3125 79.5625 C109.49260841 80.15878479 109.49260841 80.15878479 112.3125 78.5625 C114.31152327 72.33025098 114.65180394 65.61870154 115.06640625 59.12890625 C115.3125 56.5625 115.3125 56.5625 116.3125 53.5625 C117.63553717 53.1903958 118.96987935 52.85619827 120.3125 52.5625 C121.7908226 49.60585481 121.37282783 46.82020263 121.3125 43.5625 C119.6625 43.2325 118.0125 42.9025 116.3125 42.5625 C116.47334676 33.36498966 118.15019374 26.7125642 122.3125 18.5625 C123.82256281 14.67948136 124.55751914 11.72782539 124.3125 7.5625 C121.33576618 6.07413309 118.6191117 6.50829325 115.3125 6.5625 C108.53472222 6.67361111 108.53472222 6.67361111 106.3125 5.5625 C104.85258612 5.46627818 103.38837119 5.43183791 101.92529297 5.42878723 C101.00302414 5.42452225 100.08075531 5.42025726 99.13053894 5.41586304 C98.11550797 5.41631622 97.10047699 5.41676941 96.0546875 5.41723633 C94.98781204 5.41387772 93.92093658 5.4105191 92.82173157 5.40705872 C89.27697601 5.39752215 85.73226761 5.39560381 82.1875 5.39453125 C79.72566712 5.39131899 77.26383443 5.38795494 74.80200195 5.38444519 C69.63020384 5.37844607 64.45842245 5.37660594 59.28662109 5.37719727 C52.67370218 5.37729858 46.0608914 5.36368194 39.44799805 5.34642506 C34.35719312 5.33527681 29.26641402 5.33327898 24.17559814 5.33380699 C21.73886749 5.33262977 19.3021361 5.32822249 16.86541748 5.32047462 C13.44535909 5.31062415 10.02553124 5.31357351 6.60546875 5.31958008 C5.60663162 5.31396057 4.60779449 5.30834106 3.57868958 5.30255127 C-2.72872033 5.33055253 -8.55342743 6.09291166 -14.6875 7.5625 Z " fill="#F8D5D8" transform="translate(194.6875,154.4375)"/>
<path d="M0 0 C0.72680969 0.0028299 1.45361938 0.00565979 2.20245361 0.00857544 C4.51534751 0.01973727 6.82784888 0.04483399 9.140625 0.0703125 C10.71223398 0.08034749 12.28384904 0.08947244 13.85546875 0.09765625 C17.70067122 0.11966346 21.54558164 0.15416535 25.390625 0.1953125 C25.390625 0.5253125 25.390625 0.8553125 25.390625 1.1953125 C17.800625 1.5253125 10.210625 1.8553125 2.390625 2.1953125 C2.060625 4.8353125 1.730625 7.4753125 1.390625 10.1953125 C3.040625 10.1953125 4.690625 10.1953125 6.390625 10.1953125 C6.720625 9.5353125 7.050625 8.8753125 7.390625 8.1953125 C8.050625 8.5253125 8.710625 8.8553125 9.390625 9.1953125 C9.58733054 12.96572506 9.77140926 16.73665013 9.953125 20.5078125 C10.00919922 21.57966797 10.06527344 22.65152344 10.12304688 23.75585938 C10.17138672 24.78388672 10.21972656 25.81191406 10.26953125 26.87109375 C10.3166626 27.81895752 10.36379395 28.76682129 10.41235352 29.7434082 C10.390625 32.1953125 10.390625 32.1953125 9.390625 35.1953125 C11.700625 35.1953125 14.010625 35.1953125 16.390625 35.1953125 C16.720625 26.2853125 17.050625 17.3753125 17.390625 8.1953125 C20.030625 8.1953125 22.670625 8.1953125 25.390625 8.1953125 C25.390625 8.5253125 25.390625 8.8553125 25.390625 9.1953125 C24.58625 9.3190625 23.781875 9.4428125 22.953125 9.5703125 C22.1075 9.7765625 21.261875 9.9828125 20.390625 10.1953125 C19.10456839 12.76742572 19.18018559 14.76438216 19.07421875 17.640625 C19.01137695 19.25517578 19.01137695 19.25517578 18.94726562 20.90234375 C18.90794922 22.03027344 18.86863281 23.15820312 18.828125 24.3203125 C18.76334961 26.02380859 18.76334961 26.02380859 18.69726562 27.76171875 C18.59096555 30.57276511 18.49027103 33.3840224 18.390625 36.1953125 C23.340625 36.1953125 28.290625 36.1953125 33.390625 36.1953125 C33.0979777 27.21068542 33.0979777 27.21068542 30.765625 18.6328125 C29.35995056 15.11862641 29.29174269 14.54324061 30.390625 11.1953125 C37.12859291 26.98140876 37.12859291 26.98140876 34.390625 35.1953125 C37.030625 35.1953125 39.670625 35.1953125 42.390625 35.1953125 C42.060625 34.2053125 41.730625 33.2153125 41.390625 32.1953125 C41.1875 30.0390625 41.1875 30.0390625 41.140625 27.6953125 C41.11484375 26.921875 41.0890625 26.1484375 41.0625 25.3515625 C41.390625 23.1953125 41.390625 23.1953125 42.81079102 21.79760742 C44.54553922 20.03819582 45.16497303 18.71101243 45.99609375 16.40234375 C46.25712891 15.69013672 46.51816406 14.97792969 46.78710938 14.24414062 C47.17866211 13.1371582 47.17866211 13.1371582 47.578125 12.0078125 C47.85076172 11.25822266 48.12339844 10.50863281 48.40429688 9.73632812 C49.07388596 7.89202134 49.73326221 6.04401238 50.390625 4.1953125 C49.070625 3.5353125 47.750625 2.8753125 46.390625 2.1953125 C47.390625 1.1953125 47.390625 1.1953125 49.953125 1.1328125 C51.1596875 1.16375 51.1596875 1.16375 52.390625 1.1953125 C51.81271017 6.30460494 50.6725611 10.71142861 48.890625 15.5703125 C48.22546875 17.40722656 48.22546875 17.40722656 47.546875 19.28125 C46.390625 22.1953125 46.390625 22.1953125 45.390625 23.1953125 C45.15580807 25.37824024 44.97699177 27.56734424 44.828125 29.7578125 C44.70244141 31.55412109 44.70244141 31.55412109 44.57421875 33.38671875 C44.51363281 34.31355469 44.45304687 35.24039063 44.390625 36.1953125 C46.040625 36.5253125 47.690625 36.8553125 49.390625 37.1953125 C49.7575829 43.67823545 49.7575829 43.67823545 48.015625 46.1328125 C46.390625 47.1953125 46.390625 47.1953125 44.390625 47.1953125 C43.20164072 50.76226534 42.82170606 54.29310615 42.390625 58.0078125 C41.09223258 69.01371704 41.09223258 69.01371704 40.390625 72.1953125 C38.390625 73.1953125 38.390625 73.1953125 30.390625 73.1953125 C30.060625 65.2753125 29.730625 57.3553125 29.390625 49.1953125 C27.410625 49.1953125 25.430625 49.1953125 23.390625 49.1953125 C23.390625 48.5353125 23.390625 47.8753125 23.390625 47.1953125 C21.95201206 47.28277534 20.51464992 47.39096598 19.078125 47.5078125 C18.27761719 47.56582031 17.47710937 47.62382812 16.65234375 47.68359375 C14.02790166 48.27737944 13.08241828 49.15311544 11.390625 51.1953125 C13.370625 51.1953125 15.350625 51.1953125 17.390625 51.1953125 C15.390625 53.1953125 15.390625 53.1953125 11.765625 53.3203125 C10.651875 53.2790625 9.538125 53.2378125 8.390625 53.1953125 C8.390625 51.2153125 8.390625 49.2353125 8.390625 47.1953125 C9.80601217 46.85658737 11.22300463 46.52456626 12.640625 46.1953125 C13.42953125 46.0096875 14.2184375 45.8240625 15.03125 45.6328125 C17.390625 45.1953125 17.390625 45.1953125 21.390625 45.1953125 C21.720625 42.8853125 22.050625 40.5753125 22.390625 38.1953125 C20.64029656 38.33714946 18.89036966 38.48394679 17.140625 38.6328125 C16.16609375 38.71402344 15.1915625 38.79523438 14.1875 38.87890625 C11.49659887 39.09885278 11.49659887 39.09885278 9.40625 39.79296875 C6.58383394 40.356358 4.18309471 39.76649949 1.390625 39.1953125 C1.36556885 39.88044922 1.3405127 40.56558594 1.31469727 41.27148438 C1.19776893 44.412906 1.07548626 47.55409798 0.953125 50.6953125 C0.91380859 51.77296875 0.87449219 52.850625 0.83398438 53.9609375 C0.60404451 59.76249714 0.22063769 65.44799777 -0.609375 71.1953125 C-1.269375 71.1953125 -1.929375 71.1953125 -2.609375 71.1953125 C-4.41345501 64.26893388 -5.7968704 57.29982934 -7.109375 50.265625 C-7.274375 49.41226563 -7.439375 48.55890625 -7.609375 47.6796875 C-7.8259375 46.53064941 -7.8259375 46.53064941 -8.046875 45.35839844 C-8.63037321 42.80712632 -8.63037321 42.80712632 -10.609375 39.1953125 C-13.579375 39.1953125 -16.549375 39.1953125 -19.609375 39.1953125 C-19.609375 38.5353125 -19.609375 37.8753125 -19.609375 37.1953125 C-17.609375 36.1953125 -17.609375 36.1953125 -10.609375 36.1953125 C-10.609375 27.6153125 -10.609375 19.0353125 -10.609375 10.1953125 C-12.919375 10.1953125 -15.229375 10.1953125 -17.609375 10.1953125 C-17.59777344 11.16210938 -17.58617187 12.12890625 -17.57421875 13.125 C-17.4653072 28.8393803 -17.4653072 28.8393803 -18.609375 35.1953125 C-19.609375 36.1953125 -19.609375 36.1953125 -23.171875 36.2578125 C-24.30625 36.2371875 -25.440625 36.2165625 -26.609375 36.1953125 C-26.279375 35.5353125 -25.949375 34.8753125 -25.609375 34.1953125 C-23.959375 34.1953125 -22.309375 34.1953125 -20.609375 34.1953125 C-20.58431885 33.4432251 -20.5592627 32.6911377 -20.53344727 31.91625977 C-20.41786986 28.52992054 -20.29497155 25.14388637 -20.171875 21.7578125 C-20.13255859 20.57380859 -20.09324219 19.38980469 -20.05273438 18.16992188 C-20.01083984 17.04521484 -19.96894531 15.92050781 -19.92578125 14.76171875 C-19.88912354 13.71959229 -19.85246582 12.67746582 -19.81469727 11.60375977 C-19.609375 9.1953125 -19.609375 9.1953125 -18.609375 8.1953125 C-16.27640067 8.15438313 -13.94232275 8.15289527 -11.609375 8.1953125 C-11.609375 6.2153125 -11.609375 4.2353125 -11.609375 2.1953125 C-7.89562804 -0.21112891 -4.27088666 -0.06287391 0 0 Z " fill="#EC6E7B" transform="translate(266.609375,160.8046875)"/>
<path d="M0 0 C2.31 0 4.62 0 7 0 C7 8.58 7 17.16 7 26 C4.03 26.33 1.06 26.66 -2 27 C-2 27.66 -2 28.32 -2 29 C0.97 28.67 3.94 28.34 7 28 C9.45250463 31.67600323 10.58701617 34.77044901 11.38671875 39.10546875 C11.60263672 40.25337891 11.81855469 41.40128906 12.04101562 42.58398438 C12.36102539 44.36772461 12.36102539 44.36772461 12.6875 46.1875 C12.91244141 47.38826172 13.13738281 48.58902344 13.36914062 49.82617188 C15 58.62488127 15 58.62488127 15 61 C15.66 61 16.32 61 17 61 C17.02505615 60.35039307 17.0501123 59.70078613 17.07592773 59.03149414 C17.19313851 56.04168912 17.31528919 53.05210465 17.4375 50.0625 C17.47681641 49.04091797 17.51613281 48.01933594 17.55664062 46.96679688 C17.80720001 40.93409791 18.25643055 34.992295 19 29 C20.093125 29.020625 21.18625 29.04125 22.3125 29.0625 C25.94384191 29.18544452 25.94384191 29.18544452 29 28 C30.89470816 27.9314505 32.7916834 27.91519628 34.6875 27.9375 C35.68136719 27.94652344 36.67523438 27.95554688 37.69921875 27.96484375 C38.83810547 27.98224609 38.83810547 27.98224609 40 28 C39.67 30.31 39.34 32.62 39 35 C34.71 35.66 30.42 36.32 26 37 C26 38.98 26 40.96 26 43 C28.31 42.67 30.62 42.34 33 42 C31.68 41.67 30.36 41.34 29 41 C29.33 40.01 29.66 39.02 30 38 C32.97 37.505 32.97 37.505 36 37 C35.34 37.66 34.68 38.32 34 39 C34.99 39.495 34.99 39.495 36 40 C38 42 38 42 38.265625 43.98046875 C38.25140615 45.98888143 38.13142025 47.99584122 38 50 C37.34 50 36.68 50 36 50 C36 50.66 36 51.32 36 52 C34.906875 52.350625 33.81375 52.70125 32.6875 53.0625 C30.38969527 54.02340016 29.25213602 54.60429899 27.90234375 56.72265625 C27.19502423 58.45363416 26.59131932 60.22604203 26 62 C24.43696339 63.56303661 22.90674142 63.12973386 20.73828125 63.1328125 C19.43020508 63.13474609 19.43020508 63.13474609 18.09570312 63.13671875 C16.71801758 63.13091797 16.71801758 63.13091797 15.3125 63.125 C14.41337891 63.12886719 13.51425781 63.13273437 12.58789062 63.13671875 C7.92391463 63.12987506 3.60358166 62.81808398 -1 62 C-1.495 62.495 -1.495 62.495 -2 63 C-3.85287502 63.07226502 -5.70833878 63.0838122 -7.5625 63.0625 C-8.57441406 63.05347656 -9.58632812 63.04445312 -10.62890625 63.03515625 C-11.41136719 63.02355469 -12.19382813 63.01195312 -13 63 C-13.24097285 57.15152385 -12.58929606 52.63425701 -10.6875 47.125 C-10.22737413 45.72932826 -9.76773832 44.33349487 -9.30859375 42.9375 C-9.08413574 42.2671875 -8.85967773 41.596875 -8.62841797 40.90625 C-7.52829757 37.56913265 -6.56140971 34.19320774 -5.578125 30.8203125 C-5 29 -5 29 -4 27 C-5.65 27 -7.3 27 -9 27 C-9 26.67 -9 26.34 -9 26 C-5.535 25.505 -5.535 25.505 -2 25 C-1.34 16.75 -0.68 8.5 0 0 Z " fill="#F28894" transform="translate(249,171)"/>
<path d="M0 0 C4.455 0.99 4.455 0.99 9 2 C9.26957416 5.68418021 9.08569728 7.81652281 7.50390625 11.203125 C5.69535163 15.25002688 5.61846067 18.80970655 5.75 23.1875 C5.75515625 23.88552734 5.7603125 24.58355469 5.765625 25.30273438 C5.77701357 30.2585395 5.77701357 30.2585395 7 35 C11.32421282 37.05914896 15.26036497 37.50781804 20 37 C23.18288354 35.12821884 23.18288354 35.12821884 26 33 C28.375 32.25 28.375 32.25 30 32 C30.350625 32.825 30.70125 33.65 31.0625 34.5 C31.701875 35.325 32.34125 36.15 33 37 C36.42744229 37.3607834 38.88122044 37.55938978 42 36 C44.80479234 35.87805251 47.28528255 35.79898572 50 36.5625 C52.80116617 37.1752551 55.20392598 36.49707983 58 36 C58.33 36.33 58.66 36.66 59 37 C60.74765452 37.09969841 62.4995103 37.12968045 64.25 37.125 C65.20390625 37.12757813 66.1578125 37.13015625 67.140625 37.1328125 C69.99800871 37.07580833 69.99800871 37.07580833 72.734375 36.4296875 C75 36 75 36 77 37 C78.52148326 37.08372659 80.04655778 37.10730027 81.5703125 37.09765625 C82.91416016 37.09282227 82.91416016 37.09282227 84.28515625 37.08789062 C85.22230469 37.07951172 86.15945313 37.07113281 87.125 37.0625 C88.54232422 37.05573242 88.54232422 37.05573242 89.98828125 37.04882812 C92.32558387 37.03702357 94.66276061 37.02055759 97 37 C97.36351562 36.16855469 97.36351562 36.16855469 97.734375 35.3203125 C98.23710937 34.23363281 98.23710937 34.23363281 98.75 33.125 C99.07484375 32.40570313 99.3996875 31.68640625 99.734375 30.9453125 C101.24979034 28.61606299 102.40909162 27.93945151 105 27 C105.99 27 106.98 27 108 27 C108 26.34 108 25.68 108 25 C108.66 25 109.32 25 110 25 C109.88785352 19.37993278 109.88785352 19.37993278 106.9375 15 C106.298125 14.67 105.65875 14.34 105 14 C108.22791555 11.8480563 109.28400809 11.79913557 113 12 C113 12.66 113 13.32 113 14 C114.98 14 116.96 14 119 14 C119.98043964 16.94131891 120.11621202 18.82501665 120.09765625 21.88671875 C120.09282227 23.2934082 120.09282227 23.2934082 120.08789062 24.72851562 C120.07532227 26.19321289 120.07532227 26.19321289 120.0625 27.6875 C120.05798828 28.67556641 120.05347656 29.66363281 120.04882812 30.68164062 C120.03704303 33.12115474 120.02059011 35.56054689 120 38 C122.64 38 125.28 38 128 38 C128 38.33 128 38.66 128 39 C125.03 39 122.06 39 119 39 C116.93683875 34.8736775 116.75499329 33.1105236 116.8125 28.625 C116.81894531 27.52414063 116.82539063 26.42328125 116.83203125 25.2890625 C116.99387644 22.11990794 117.4117228 19.11551603 118 16 C116.35 16 114.7 16 113 16 C112.896875 16.639375 112.79375 17.27875 112.6875 17.9375 C112.460625 18.948125 112.23375 19.95875 112 21 C111.86207031 21.64324219 111.72414063 22.28648437 111.58203125 22.94921875 C109.63582547 30.22463231 105.6516176 36.04979571 100 41 C93.9975444 43.91158539 87.69650993 45.61855313 81 45 C80.19949219 44.49726563 79.39898437 43.99453125 78.57421875 43.4765625 C75.07798334 41.4711346 72.77363163 41.93255537 68.8125 42.375 C62.1691113 43.08455565 62.1691113 43.08455565 60 42 C57.78368209 41.92621497 55.56510296 41.91653812 53.34765625 41.9375 C52.69171982 41.94128662 52.03578339 41.94507324 51.35997009 41.94897461 C48.55118244 41.96533887 45.7425396 41.99344841 42.93383789 42.02050781 C40.88428417 42.03858441 38.83475408 42.05068522 36.78515625 42.0625 C35.55676025 42.07410156 34.32836426 42.08570313 33.06274414 42.09765625 C30 42 30 42 27 41 C24.84540462 41.83433767 24.84540462 41.83433767 22.625 43.0625 C18.3742672 45.0701751 18.3742672 45.0701751 15 44.4375 C13 43 13 43 12 40 C11.05125 39.896875 10.1025 39.79375 9.125 39.6875 C6 39 6 39 4 36 C3.60986284 34.0103005 3.26797351 32.00980131 3 30 C2.34 30.33 1.68 30.66 1 31 C0.87625 29.865625 0.7525 28.73125 0.625 27.5625 C0.41875 26.386875 0.2125 25.21125 0 24 C-0.66 23.67 -1.32 23.34 -2 23 C-2.34833144 18.12335991 -1.41685712 15.22949995 1 11 C1.66 11 2.32 11 3 11 C3 8.69 3 6.38 3 4 C2.34 4 1.68 4 1 4 C0.67 2.68 0.34 1.36 0 0 Z " fill="#F3B2B9" transform="translate(177,196)"/>
<path d="M0 0 C1.33333333 0 2.66666667 0 4 0 C4.1110425 7.20542418 3.99873603 14.37081382 3.5625 21.5625 C3.52326416 22.24054688 3.48402832 22.91859375 3.44360352 23.6171875 C3.23298133 26.84484117 2.93954546 29.89713138 2 33 C4.64 33 7.28 33 10 33 C10.33 27.39 10.66 21.78 11 16 C13.60526888 18.60526888 14.34134224 21.17939234 15.625 24.625 C16.07101563 25.81351563 16.51703125 27.00203125 16.9765625 28.2265625 C17.31429687 29.14179688 17.65203125 30.05703125 18 31 C20.64 31.33 23.28 31.66 26 32 C25.99476318 31.24380371 25.98952637 30.48760742 25.98413086 29.70849609 C25.96327276 26.26400593 25.95031174 22.8195291 25.9375 19.375 C25.92912109 18.18519531 25.92074219 16.99539062 25.91210938 15.76953125 C25.90888672 14.61582031 25.90566406 13.46210938 25.90234375 12.2734375 C25.89710693 11.21560059 25.89187012 10.15776367 25.88647461 9.06787109 C26.00124422 5.96637654 26.42303718 3.04652343 27 0 C27.66 0 28.32 0 29 0 C29 2.64 29 5.28 29 8 C30.65 8 32.3 8 34 8 C34.33 7.34 34.66 6.68 35 6 C35.66 6.33 36.32 6.66 37 7 C37.495 18.385 37.495 18.385 38 30 C36.0243438 27.03651571 35.73623141 26.31979627 35.5859375 22.98828125 C35.52792969 21.85229492 35.52792969 21.85229492 35.46875 20.69335938 C35.4378125 19.90767578 35.406875 19.12199219 35.375 18.3125 C35.31699219 17.11657227 35.31699219 17.11657227 35.2578125 15.89648438 C35.16367506 13.93136525 35.08075368 11.9657146 35 10 C32.69 10 30.38 10 28 10 C27.88385071 14.0830942 27.81276543 18.16576377 27.75 22.25 C27.71648437 23.40886719 27.68296875 24.56773437 27.6484375 25.76171875 C27.63554687 26.87675781 27.62265625 27.99179688 27.609375 29.140625 C27.58842773 30.16704102 27.56748047 31.19345703 27.54589844 32.25097656 C28.11498932 35.69611815 29.46630705 36.70240399 32 39 C32.25 41.75 32.25 41.75 32 44 C31.34 43.01 30.68 42.02 30 41 C28.44987954 38.69879811 28.44987954 38.69879811 26 37 C23.07545478 36.70637096 20.64493292 36.61804057 17.75 36.75 C13.91375 36.87375 13.91375 36.87375 10 37 C9.34 46.24 8.68 55.48 8 65 C7.67 65 7.34 65 7 65 C7 60.05 7 55.1 7 50 C6.01 50.495 6.01 50.495 5 51 C3.45976004 51.06950541 1.91665012 51.08452357 0.375 51.0625 C-0.85089844 51.04896484 -0.85089844 51.04896484 -2.1015625 51.03515625 C-2.72804687 51.02355469 -3.35453125 51.01195312 -4 51 C-4 50.67 -4 50.34 -4 50 C-1.36 49.67 1.28 49.34 4 49 C4.04125 47.741875 4.0825 46.48375 4.125 45.1875 C4.14820313 44.47980469 4.17140625 43.77210938 4.1953125 43.04296875 C4.13254462 40.68640281 4.13254462 40.68640281 2 38 C-0.58380177 37.74969023 -0.58380177 37.74969023 -3 38 C-3 37.34 -3 36.68 -3 36 C-8.71327904 36.96043256 -8.71327904 36.96043256 -13.3125 40.1875 C-17.52696688 47.21161147 -18.57329856 52.86324491 -19 61 C-19.33 61 -19.66 61 -20 61 C-20.48430685 52.17485297 -20.58440563 45.29868979 -14.62109375 38.40625 C-13.46424778 37.21974132 -12.23855792 36.10094038 -11 35 C-13.31 34.67 -15.62 34.34 -18 34 C-16 32 -16 32 -12.5234375 31.8046875 C-11.14049032 31.81798507 -9.75761346 31.84183768 -8.375 31.875 C-7.31539062 31.88853516 -7.31539062 31.88853516 -6.234375 31.90234375 C-4.48943902 31.92592397 -2.74467705 31.96179539 -1 32 C-1 29.36 -1 26.72 -1 24 C-5.62 24 -10.24 24 -15 24 C-15.33 23.01 -15.66 22.02 -16 21 C-16.66 20.67 -17.32 20.34 -18 20 C-17.01 18.68 -16.02 17.36 -15 16 C-14.67 16.99 -14.34 17.98 -14 19 C-10.37 18.67 -6.74 18.34 -3 18 C-3.495 15.525 -3.495 15.525 -4 13 C-7.3 12.67 -10.6 12.34 -14 12 C-14 10.35 -14 8.7 -14 7 C-9.38 6.67 -4.76 6.34 0 6 C0 4.02 0 2.04 0 0 Z " fill="#EB6A78" transform="translate(202,163)"/>
<path d="M0 0 C-0.33 7.26 -0.66 14.52 -1 22 C-1.66 22 -2.32 22 -3 22 C-2.34 22.33 -1.68 22.66 -1 23 C-0.34 19.04 0.32 15.08 1 11 C2.98 11 4.96 11 7 11 C7.33 19.25 7.66 27.5 8 36 C5.69 36 3.38 36 1 36 C-1.21772491 44.27950633 -1.60271115 52.47919963 -2 61 C-4.30729585 57.11673868 -5.04688752 52.92224498 -6 48.5625 C-7.24293505 42.79382774 -7.24293505 42.79382774 -9.125 37.21484375 C-10.39409425 34.00244894 -10.04785892 31.2931359 -9.5 27.9375 C-8.86511893 22.93781155 -8.92165204 18.03168021 -9 13 C-9 9 -9 5 -9 1 C-8.34 1.66 -7.68 2.32 -7 3 C-6.5875 2.505 -6.175 2.01 -5.75 1.5 C-4 0 -4 0 0 0 Z " fill="#ED8B94" transform="translate(267,162)"/>
<path d="M0 0 C0.3669579 6.48292295 0.3669579 6.48292295 -1.375 8.9375 C-3 10 -3 10 -5 10 C-6.18898428 13.56695284 -6.56891894 17.09779365 -7 20.8125 C-8.29839242 31.81840454 -8.29839242 31.81840454 -9 35 C-12.21451269 36.60725635 -15.43612536 36.05748185 -19 36 C-18.5359375 34.9790625 -18.5359375 34.9790625 -18.0625 33.9375 C-16.86629351 30.63034088 -16.40994603 27.48454122 -16 24 C-16.66 24 -17.32 24 -18 24 C-18.33 19.38 -18.66 14.76 -19 10 C-20.98 10 -22.96 10 -25 10 C-25 7.03 -25 4.06 -25 1 C-21.20836402 0.8326303 -17.4166864 0.66622322 -13.625 0.5 C-12.54476563 0.45230469 -11.46453125 0.40460938 -10.3515625 0.35546875 C-9.3203125 0.31035156 -8.2890625 0.26523438 -7.2265625 0.21875 C-6.27346191 0.17685547 -5.32036133 0.13496094 -4.33837891 0.09179688 C-2.89304218 0.03505783 -1.44644999 0 0 0 Z " fill="#F38A95" transform="translate(316,198)"/>
<path d="M0 0 C0.9583374 0.00523682 1.9166748 0.01047363 2.90405273 0.01586914 C4.45576172 0.02070313 4.45576172 0.02070313 6.03881836 0.02563477 C7.12743164 0.03401367 8.21604492 0.04239258 9.33764648 0.05102539 C10.97636719 0.05779297 10.97636719 0.05779297 12.64819336 0.06469727 C15.35723144 0.07652713 18.06616248 0.09300996 20.77514648 0.11352539 C20.77514648 2.42352539 20.77514648 4.73352539 20.77514648 7.11352539 C18.13514648 7.11352539 15.49514648 7.11352539 12.77514648 7.11352539 C12.78674805 8.22469727 12.79834961 9.33586914 12.81030273 10.48071289 C12.86753246 18.43653935 12.77933734 26.20552238 11.77514648 34.11352539 C9.46514648 34.11352539 7.15514648 34.11352539 4.77514648 34.11352539 C4.77514648 25.53352539 4.77514648 16.95352539 4.77514648 8.11352539 C2.13514648 8.44352539 -0.50485352 8.77352539 -3.22485352 9.11352539 C-3.32250977 2.96118164 -3.32250977 2.96118164 -3.22485352 1.11352539 C-2.22485352 0.11352539 -2.22485352 0.11352539 0 0 Z " fill="#F38B96" transform="translate(271.224853515625,161.886474609375)"/>
<path d="M0 0 C0.99 0 1.98 0 3 0 C3.06058594 1.26457031 3.12117187 2.52914062 3.18359375 3.83203125 C3.26800904 5.49219871 3.35265655 7.15235437 3.4375 8.8125 C3.47681641 9.64587891 3.51613281 10.47925781 3.55664062 11.33789062 C3.59853516 12.14033203 3.64042969 12.94277344 3.68359375 13.76953125 C3.72025146 14.50792236 3.75690918 15.24631348 3.79467773 16.00708008 C3.94842141 18.207495 3.94842141 18.207495 5 21 C8.51190809 22.22969878 8.51190809 22.22969878 12 23 C9.94316833 31.62118804 7.73148625 40.04635521 4.81640625 48.42578125 C3.79833649 51.63586725 3.30425698 54.65317317 3 58 C1.35 57.67 -0.3 57.34 -2 57 C-1.34 56.34 -0.68 55.68 0 55 C-0.10658567 52.20212614 -0.51775625 49.49831599 -0.90625 46.7265625 C-1.01053718 43.6935438 -0.36455913 42.63273677 1 40 C1.35298334 37.05483986 1.35298334 37.05483986 1.3125 33.9375 C1.32925781 32.89464844 1.34601563 31.85179687 1.36328125 30.77734375 C1.30193861 27.97897618 1.30193861 27.97897618 -0.5 26.63891602 C-2.54934495 24.39977985 -2.37336352 22.99961085 -2.36328125 20 C-2.36231445 18.5459375 -2.36231445 18.5459375 -2.36132812 17.0625 C-2.34521484 16.051875 -2.32910156 15.04125 -2.3125 14 C-2.31572266 12.989375 -2.31894531 11.97875 -2.32226562 10.9375 C-2.26714286 3.40071429 -2.26714286 3.40071429 0 0 Z " fill="#F09FA7" transform="translate(233,175)"/>
<path d="M0 0 C0 0.66 0 1.32 0 2 C1.98 2 3.96 2 6 2 C6.98043964 4.94131891 7.11621202 6.82501665 7.09765625 9.88671875 C7.09282227 11.2934082 7.09282227 11.2934082 7.08789062 12.72851562 C7.07532227 14.19321289 7.07532227 14.19321289 7.0625 15.6875 C7.05798828 16.67556641 7.05347656 17.66363281 7.04882812 18.68164062 C7.03704303 21.12115474 7.02059011 23.56054689 7 26 C9.64 26 12.28 26 15 26 C15 26.33 15 26.66 15 27 C12.03 27 9.06 27 6 27 C3.93683875 22.8736775 3.75499329 21.1105236 3.8125 16.625 C3.81894531 15.52414063 3.82539063 14.42328125 3.83203125 13.2890625 C3.99387644 10.11990794 4.4117228 7.11551603 5 4 C3.35 4 1.7 4 0 4 C-0.103125 4.639375 -0.20625 5.27875 -0.3125 5.9375 C-0.539375 6.948125 -0.76625 7.95875 -1 9 C-1.13792969 9.64324219 -1.27585937 10.28648437 -1.41796875 10.94921875 C-3.35118846 18.17608707 -7.66786472 23.82496403 -13 29 C-15.83413242 29.97066913 -18.28408445 30.08233653 -21.2578125 29.9140625 C-22.44310547 29.84832031 -22.44310547 29.84832031 -23.65234375 29.78125 C-24.46832031 29.7296875 -25.28429687 29.678125 -26.125 29.625 C-27.36056641 29.55925781 -27.36056641 29.55925781 -28.62109375 29.4921875 C-34.73623029 29.13188486 -34.73623029 29.13188486 -37 28 C-39.26433428 27.85669004 -41.53257562 27.7734371 -43.80078125 27.71875 C-44.47417038 27.70034058 -45.14755951 27.68193115 -45.84135437 27.66296387 C-47.99831359 27.60418408 -50.15535364 27.55142356 -52.3125 27.5 C-55.14208294 27.43204682 -57.97143239 27.35827176 -60.80078125 27.28125 C-62.06059814 27.25095703 -63.32041504 27.22066406 -64.6184082 27.18945312 C-67.52749939 27.02647177 -70.17050056 26.66584386 -73 26 C-71 24 -71 24 -68.125 23.8125 C-65 24 -65 24 -63 24.5625 C-60.19883383 25.1752551 -57.79607402 24.49707983 -55 24 C-54.67 24.33 -54.34 24.66 -54 25 C-52.25234548 25.09969841 -50.5004897 25.12968045 -48.75 25.125 C-47.79609375 25.12757813 -46.8421875 25.13015625 -45.859375 25.1328125 C-43.00199129 25.07580833 -43.00199129 25.07580833 -40.265625 24.4296875 C-38 24 -38 24 -36 25 C-34.47851674 25.08372659 -32.95344222 25.10730027 -31.4296875 25.09765625 C-30.08583984 25.09282227 -30.08583984 25.09282227 -28.71484375 25.08789062 C-27.77769531 25.07951172 -26.84054687 25.07113281 -25.875 25.0625 C-24.93011719 25.05798828 -23.98523438 25.05347656 -23.01171875 25.04882812 C-20.67441613 25.03702357 -18.33723939 25.02055759 -16 25 C-15.75765625 24.44570312 -15.5153125 23.89140625 -15.265625 23.3203125 C-14.93046875 22.59585938 -14.5953125 21.87140625 -14.25 21.125 C-13.92515625 20.40570313 -13.6003125 19.68640625 -13.265625 18.9453125 C-11.75020966 16.61606299 -10.59090838 15.93945151 -8 15 C-7.01 15 -6.02 15 -5 15 C-5 14.34 -5 13.68 -5 13 C-4.34 13 -3.68 13 -3 13 C-3.11214648 7.37993278 -3.11214648 7.37993278 -6.0625 3 C-6.701875 2.67 -7.34125 2.34 -8 2 C-4.77208445 -0.1519437 -3.71599191 -0.20086443 0 0 Z " fill="#F4B6BC" transform="translate(290,208)"/>
<path d="M0 0 C0.495 0.99 0.495 0.99 1 2 C-9.7812183 2.13217342 -20.56245563 2.26266435 -31.34371853 2.39115143 C-36.35277218 2.45089726 -41.3618182 2.51116958 -46.37084961 2.57275391 C-52.16257871 2.64388987 -57.95432931 2.71305717 -63.74609375 2.78125 C-65.15704882 2.79810852 -65.15704882 2.79810852 -66.59650803 2.81530762 C-78.56543076 2.95662298 -90.5315967 3.06876268 -102.50132751 2.93762207 C-108.3952333 2.89780418 -114.14760959 3.3016514 -120 4 C-120.31783704 6.66612814 -120.63052464 9.33261108 -120.9375 12 C-121.0303125 12.80493896 -121.123125 13.60987793 -121.21875 14.43920898 C-121.98149912 21.29925098 -122.38504344 28.13972942 -122.65625 35.03515625 C-122.7696875 36.01355469 -122.883125 36.99195313 -123 38 C-123.99 38.495 -123.99 38.495 -125 39 C-126.39668171 34.14310232 -126.22346197 29.33150416 -126.25 24.3125 C-126.270625 23.35666016 -126.29125 22.40082031 -126.3125 21.41601562 C-126.3512652 14.30744733 -125.18729237 8.37458473 -122 2 C-120.03921509 1.59706116 -120.03921509 1.59706116 -117.51416016 1.39477539 C-116.60514954 1.32138947 -115.69613892 1.24800354 -114.75958252 1.1723938 C-110.763858 0.92277701 -106.77589413 0.76773541 -102.7734375 0.68359375 C-101.89499176 0.66276733 -101.01654602 0.64194092 -100.11148071 0.6204834 C-97.19940857 0.55417723 -94.28725499 0.49518569 -91.375 0.4375 C-90.36663086 0.41632111 -89.35826172 0.39514221 -88.31933594 0.37332153 C-58.88390179 -0.23123788 -29.43987421 -0.09403599 0 0 Z " fill="#F5BCC1" transform="translate(300,158)"/>
<path d="M0 0 C1.93286865 0.04495605 1.93286865 0.04495605 3.90478516 0.09082031 C8.14524124 0.19376859 12.38511762 0.31337645 16.625 0.4375 C17.67284164 0.46670029 17.67284164 0.46670029 18.74185181 0.49649048 C20.73691135 0.55365155 22.73174715 0.61846556 24.7265625 0.68359375 C26.46800537 0.73858032 26.46800537 0.73858032 28.24462891 0.79467773 C31 1 31 1 33 2 C35.87910588 2.23274209 38.74146495 2.41972757 41.625 2.5625 C42.42679687 2.60568359 43.22859375 2.64886719 44.0546875 2.69335938 C46.0362511 2.79951457 48.01810271 2.90026855 50 3 C49 5 49 5 45.8125 6.125 C42.27154773 6.93767757 39.59742641 7.39102461 36 7 C35.26394531 6.49082031 34.52789062 5.98164063 33.76953125 5.45703125 C30.14406115 3.54969649 27.84865572 3.92417544 23.8125 4.375 C17.1691113 5.08455565 17.1691113 5.08455565 15 4 C12.78368209 3.92621497 10.56510296 3.91653812 8.34765625 3.9375 C7.69171982 3.94128662 7.03578339 3.94507324 6.35997009 3.94897461 C3.55118244 3.96533887 0.7425396 3.99344841 -2.06616211 4.02050781 C-4.11571583 4.03858441 -6.16524592 4.05068522 -8.21484375 4.0625 C-9.44323975 4.07410156 -10.67163574 4.08570313 -11.93725586 4.09765625 C-15 4 -15 4 -18 3 C-20.15459538 3.83433767 -20.15459538 3.83433767 -22.375 5.0625 C-26.62214169 7.09253673 -26.62214169 7.09253673 -30.0625 6.25 C-30.701875 5.8375 -31.34125 5.425 -32 5 C-32 4.01 -32 3.02 -32 2 C-21.32612882 -0.42982433 -10.86695713 -0.25306387 0 0 Z " fill="#F7CFD3" transform="translate(222,234)"/>
<path d="M0 0 C-0.33 7.26 -0.66 14.52 -1 22 C-1.66 22 -2.32 22 -3 22 C-2.34 22.33 -1.68 22.66 -1 23 C-0.5859375 25.50390625 -0.5859375 25.50390625 -0.375 28.5625 C-0.30023438 29.57441406 -0.22546875 30.58632812 -0.1484375 31.62890625 C-0.09945313 32.41136719 -0.05046875 33.19382813 0 34 C-3.06890187 35.53445094 -5.70094266 34.54984289 -9 34 C-10.03552507 30.8934248 -9.78400791 29.32336778 -9.2578125 26.1796875 C-8.74081863 21.80873931 -8.93157628 17.39432321 -9 13 C-9 9 -9 5 -9 1 C-8.34 1.66 -7.68 2.32 -7 3 C-6.5875 2.505 -6.175 2.01 -5.75 1.5 C-4 0 -4 0 0 0 Z " fill="#F38994" transform="translate(267,162)"/>
<path d="M0 0 C0.66 0 1.32 0 2 0 C1.67 2.97 1.34 5.94 1 9 C6.445 8.505 6.445 8.505 12 8 C12.33 13.94 12.66 19.88 13 26 C12.34 26 11.68 26 11 26 C10.67 25.34 10.34 24.68 10 24 C7.41022723 24.46245942 6.03496141 24.97245465 3.9375 26.625 C3.298125 27.07875 2.65875 27.5325 2 28 C1.01 27.67 0.02 27.34 -1 27 C-0.071875 26.4225 0.85625 25.845 1.8125 25.25 C4.59815842 23.28365288 6.18738696 21.81962028 8 19 C7.34 17.68 6.68 16.36 6 15 C5.2575 15.804375 4.515 16.60875 3.75 17.4375 C0.03930131 20.89519651 0.03930131 20.89519651 -3 21 C-5.57232706 18.42767294 -5.29786466 17.32102308 -5.3125 13.75 C-5.21510067 8.03340875 -4.12181575 4.12181575 0 0 Z " fill="#EC7E89" transform="translate(197,205)"/>
<path d="M0 0 C1.59048596 0.04846762 3.1809808 0.09664512 4.77148438 0.14453125 C8.57693247 0.25971061 12.38224241 0.37869632 16.1875 0.5 C16.1875 0.83 16.1875 1.16 16.1875 1.5 C-19.7825 2.16 -55.7525 2.82 -92.8125 3.5 C-92.8125 2.84 -92.8125 2.18 -92.8125 1.5 C-89.55873758 0.78273536 -86.5013653 0.36117707 -83.171875 0.29467773 C-82.27903809 0.27473251 -81.38620117 0.25478729 -80.46630859 0.23423767 C-79.02892334 0.20916893 -79.02892334 0.20916893 -77.5625 0.18359375 C-76.04970459 0.1524221 -76.04970459 0.1524221 -74.50634766 0.12062073 C-72.36462504 0.07739994 -70.22285762 0.03635272 -68.08105469 -0.00268555 C-64.87943742 -0.06127505 -61.67802041 -0.12668299 -58.4765625 -0.19335938 C-38.96796504 -0.5851526 -19.50290078 -0.6237914 0 0 Z " fill="#F6C9CD" transform="translate(273.8125,156.5)"/>
<path d="M0 0 C0.99 0.33 1.98 0.66 3 1 C3.53257191 3.56055758 4.05131844 6.12266329 4.5625 8.6875 C4.78969727 9.7693457 4.78969727 9.7693457 5.02148438 10.87304688 C5.80075161 14.84187301 6.33234946 18.06249797 5 22 C3.25 23.375 3.25 23.375 1 24 C-0.67435587 23.70773078 -2.34302511 23.37858036 -4 23 C-4.05420701 20.43721301 -4.09377007 17.87558517 -4.125 15.3125 C-4.15013672 14.2306543 -4.15013672 14.2306543 -4.17578125 13.12695312 C-4.21385307 8.95808882 -3.9668938 5.70683832 -2 2 C-1.34 1.34 -0.68 0.68 0 0 Z " fill="#F4B6BC" transform="translate(292,172)"/>
<path d="M0 0 C2.31 0 4.62 0 7 0 C7 8.58 7 17.16 7 26 C4.69 26 2.38 26 0 26 C0 17.42 0 8.84 0 0 Z " fill="#F0A0A8" transform="translate(249,171)"/>
<path d="M0 0 C0.05429959 1.74965358 0.09292823 3.49979787 0.125 5.25 C0.14820313 6.22453125 0.17140625 7.1990625 0.1953125 8.203125 C-0.00137219 11.0196498 -0.55431084 12.60949036 -2 15 C-3.916588 15.02712153 -5.8332873 15.04645097 -7.75 15.0625 C-9.35101563 15.07990234 -9.35101563 15.07990234 -10.984375 15.09765625 C-14.41722 14.98648899 -16.94155139 14.52922431 -20 13 C-19.01 11.68 -18.02 10.36 -17 9 C-16.67 9.99 -16.34 10.98 -16 12 C-10.555 11.505 -10.555 11.505 -5 11 C-5.33 9.35 -5.66 7.7 -6 6 C-9.3 5.67 -12.6 5.34 -16 5 C-16 3.35 -16 1.7 -16 0 C-10.39436958 -0.82622671 -5.57710648 -1.06795656 0 0 Z " fill="#EC7D88" transform="translate(204,170)"/>
<path d="M0 0 C0 0.66 0 1.32 0 2 C1.98 2 3.96 2 6 2 C6.98043964 4.94131891 7.11621202 6.82501665 7.09765625 9.88671875 C7.09443359 10.82451172 7.09121094 11.76230469 7.08789062 12.72851562 C7.07951172 13.70498047 7.07113281 14.68144531 7.0625 15.6875 C7.05798828 16.67556641 7.05347656 17.66363281 7.04882812 18.68164062 C7.03704303 21.12115474 7.02059011 23.56054689 7 26 C9.64 26 12.28 26 15 26 C15 26.33 15 26.66 15 27 C12.03 27 9.06 27 6 27 C3.93683875 22.8736775 3.75499329 21.1105236 3.8125 16.625 C3.81894531 15.52414063 3.82539063 14.42328125 3.83203125 13.2890625 C3.99387644 10.11990794 4.4117228 7.11551603 5 4 C3.35 4 1.7 4 0 4 C-0.12375 4.70125 -0.2475 5.4025 -0.375 6.125 C-2.16883117 14.37662338 -2.16883117 14.37662338 -5.5 16.875 C-8 18 -8 18 -10 18 C-10.28875 18.61875 -10.5775 19.2375 -10.875 19.875 C-12 22 -12 22 -14 24 C-13.8125 21.1875 -13.8125 21.1875 -13 18 C-10.11373339 15.72136847 -8.6952982 15 -5 15 C-5 14.34 -5 13.68 -5 13 C-4.34 13 -3.68 13 -3 13 C-3.11214648 7.37993278 -3.11214648 7.37993278 -6.0625 3 C-6.701875 2.67 -7.34125 2.34 -8 2 C-4.77208445 -0.1519437 -3.71599191 -0.20086443 0 0 Z " fill="#F2A9B0" transform="translate(290,208)"/>
<path d="M0 0 C0.99 0.33 1.98 0.66 3 1 C2.34 1.66 1.68 2.32 1 3 C-0.32139512 7.01787517 -0.1105333 11.06740796 -0.0625 15.25 C-0.05798828 15.99507812 -0.05347656 16.74015625 -0.04882812 17.5078125 C-0.03709246 19.3385764 -0.0191585 21.16929873 0 23 C3.465 22.505 3.465 22.505 7 22 C7.88763651 18.57832135 7.88763651 18.57832135 7.53125 15.125 C6.93889458 12.75557831 6.90164585 10.68808242 6.9375 8.25 C6.94652344 7.45078125 6.95554687 6.6515625 6.96484375 5.828125 C6.97644531 5.22484375 6.98804688 4.6215625 7 4 C10.28515921 7.28515921 10.93552774 10.86786706 11.1953125 15.4296875 C11.16050781 17.13511719 11.16050781 17.13511719 11.125 18.875 C11.10695313 20.02742188 11.08890625 21.17984375 11.0703125 22.3671875 C11.03550781 23.67042969 11.03550781 23.67042969 11 25 C8.03650719 25.98783094 6.0287337 26.13410525 2.9375 26.125 C1.62072266 26.12886719 1.62072266 26.12886719 0.27734375 26.1328125 C-2 26 -2 26 -4 25 C-4.24450088 17.21672191 -4.18845267 9.53800365 -2 2 C-1.34 1.34 -0.68 0.68 0 0 Z " fill="#F09BA3" transform="translate(289,172)"/>
<path d="M0 0 C0.99 1.32 1.98 2.64 3 4 C1.68 5.65 0.36 7.3 -1 9 C-1.09765625 2.84765625 -1.09765625 2.84765625 -1 1 C-0.67 0.67 -0.34 0.34 0 0 Z M-3 9 C-2.34 9 -1.68 9 -1 9 C-2.05875074 12.40312738 -3.00902154 15.01353231 -5 18 C-5.41906074 20.11029648 -5.41906074 20.11029648 -5.5625 22.375 C-5.68044922 23.57382813 -5.68044922 23.57382813 -5.80078125 24.796875 C-5.86652344 25.52390625 -5.93226563 26.2509375 -6 27 C-6.46422576 31.87437052 -8.55086855 35.56009083 -12 39 C-15.39694265 40.17853112 -17.03411033 40.38127224 -20.375 39.0625 C-21.179375 38.5365625 -21.179375 38.5365625 -22 38 C-22 37.34 -22 36.68 -22 36 C-18.37 35.67 -14.74 35.34 -11 35 C-10.87625 33.741875 -10.7525 32.48375 -10.625 31.1875 C-10.02638195 25.73920821 -9.03573574 20.37979246 -8 15 C-7.34 15 -6.68 15 -6 15 C-5.87625 14.38125 -5.7525 13.7625 -5.625 13.125 C-5 11 -5 11 -3 9 Z " fill="#F9D7DA" transform="translate(319,199)"/>
<path d="M0 0 C0.99 0 1.98 0 3 0 C4.81242323 4.0188515 6.33501617 7.61110675 7 12 C4.36 12 1.72 12 -1 12 C-1 13.65 -1 15.3 -1 17 C-1.99 17 -2.98 17 -4 17 C-5.34919532 15.34614767 -6.68133728 13.678298 -8 12 C-10.11660427 10.68834743 -10.11660427 10.68834743 -12 10 C-12 9.34 -12 8.68 -12 8 C-8.37 8 -4.74 8 -1 8 C-1.020625 7.05125 -1.04125 6.1025 -1.0625 5.125 C-1 2 -1 2 0 0 Z " fill="#EC7985" transform="translate(213,188)"/>
<path d="M0 0 C0.66 0 1.32 0 2 0 C2 7.59 2 15.18 2 23 C0.35 23 -1.3 23 -3 23 C-4.48325018 20.03349965 -3.91974157 17.53604485 -3.6875 14.25 C-3.56955078 12.43242187 -3.56955078 12.43242187 -3.44921875 10.578125 C-2.42571785 2.42571785 -2.42571785 2.42571785 0 0 Z " fill="#EF9AA2" transform="translate(271,174)"/>
<path d="M0 0 C0.33 0 0.66 0 1 0 C0.85980275 3.83356092 0.71181712 7.66678433 0.5625 11.5 C0.50352539 13.11648437 0.50352539 13.11648437 0.44335938 14.765625 C0.21341951 20.56718464 -0.16998731 26.25268527 -1 32 C-1.66 32 -2.32 32 -3 32 C-4.45519033 26.62698955 -5.61316863 21.2098989 -6.6875 15.75 C-6.83098877 15.05261719 -6.97447754 14.35523438 -7.12231445 13.63671875 C-7.84240538 9.88773127 -7.94625958 7.78503833 -7 4 C-5.68 8.95 -4.36 13.9 -3 19 C-2.86722656 17.79601562 -2.73445313 16.59203125 -2.59765625 15.3515625 C-2.4194698 13.77601915 -2.2410735 12.20049953 -2.0625 10.625 C-1.93198242 9.43390625 -1.93198242 9.43390625 -1.79882812 8.21875 C-1.11328125 2.2265625 -1.11328125 2.2265625 0 0 Z " fill="#E9616E" transform="translate(267,200)"/>
<path d="M0 0 C1.98 0.99 3.96 1.98 6 3 C5.85769192 4.41702513 5.71099254 5.8336096 5.5625 7.25 C5.48128906 8.03890625 5.40007812 8.8278125 5.31640625 9.640625 C5 12 5 12 4.4921875 13.8828125 C3.56398872 17.87554058 3.59453419 22.01839509 3.37890625 26.1015625 C3 29 3 29 1 31 C0.87625 29.865625 0.7525 28.73125 0.625 27.5625 C0.41875 26.386875 0.2125 25.21125 0 24 C-0.66 23.67 -1.32 23.34 -2 23 C-2.34833144 18.12335991 -1.41685712 15.22949995 1 11 C1.66 11 2.32 11 3 11 C3 8.69 3 6.38 3 4 C2.34 4 1.68 4 1 4 C0.67 2.68 0.34 1.36 0 0 Z " fill="#F6C4C9" transform="translate(177,196)"/>
<path d="M0 0 C3.3 0 6.6 0 10 0 C10.37574922 8.6422321 9.47780078 16.41148003 5.3125 24.125 C3.51069077 28.07182021 3.55482265 31.71944853 4 36 C4.33 36.66 4.66 37.32 5 38 C3.68 37.67 2.36 37.34 1 37 C0.41717781 28.85344091 0.91519684 22.99934332 4.6875 15.72265625 C6.79849342 11.34360145 7.87866163 6.71326778 9 2 C6.03 1.67 3.06 1.34 0 1 C0 0.67 0 0.34 0 0 Z " fill="#F4B6BD" transform="translate(310,160)"/>
<path d="M0 0 C1.2065625 0.0309375 1.2065625 0.0309375 2.4375 0.0625 C1.85958517 5.17179244 0.7194361 9.57861611 -1.0625 14.4375 C-1.5059375 15.66210938 -1.949375 16.88671875 -2.40625 18.1484375 C-3.5625 21.0625 -3.5625 21.0625 -4.5625 22.0625 C-4.79731693 24.24542774 -4.97613323 26.43453174 -5.125 28.625 C-5.20878906 29.82253906 -5.29257812 31.02007812 -5.37890625 32.25390625 C-5.43949219 33.18074219 -5.50007813 34.10757813 -5.5625 35.0625 C-4.5725 35.3925 -3.5825 35.7225 -2.5625 36.0625 C-4.0475 36.5575 -4.0475 36.5575 -5.5625 37.0625 C-6.2225 36.7325 -6.8825 36.4025 -7.5625 36.0625 C-8.91484414 31.73499874 -9.26793149 26.54702879 -8.5625 22.0625 C-7.85951782 21.37281128 -7.85951782 21.37281128 -7.14233398 20.66918945 C-5.409873 18.90727851 -4.78821528 17.57837578 -3.95703125 15.26953125 C-3.69599609 14.55732422 -3.43496094 13.84511719 -3.16601562 13.11132812 C-2.90498047 12.37333984 -2.64394531 11.63535156 -2.375 10.875 C-1.96604492 9.75061523 -1.96604492 9.75061523 -1.54882812 8.60351562 C-0.87923904 6.75920884 -0.21986279 4.91119988 0.4375 3.0625 C-0.8825 2.4025 -2.2025 1.7425 -3.5625 1.0625 C-2.5625 0.0625 -2.5625 0.0625 0 0 Z " fill="#ED7884" transform="translate(316.5625,161.9375)"/>
<path d="M0 0 C0.33 0 0.66 0 1 0 C1.33 2.31 1.66 4.62 2 7 C3.65 7 5.3 7 7 7 C5.79618552 9.49361571 4.54571278 11.68143083 3 14 C2.34 14 1.68 14 1 14 C1 14.66 1 15.32 1 16 C0.01 16 -0.98 16 -2 16 C-3.53995173 12.92009655 -3.22377524 10.41257239 -3 7 C-2.17748648 4.53245943 -1.14878622 2.34543853 0 0 Z " fill="#EF959E" transform="translate(196,208)"/>
<path d="M0 0 C3.10947317 3.66208511 3.50983683 5.93522143 3.36328125 10.625 C2.86537561 13.88012505 1.62822341 16.36227138 0.015625 19.20703125 C-1.13556104 21.13543654 -1.13556104 21.13543654 -2.125 23.9375 C-3 26 -3 26 -5 27 C-5.2909154 23.79993064 -5.02781395 22.05815644 -3.625 19.125 C-0.86469802 13.27734604 -0.69621728 6.36424498 0 0 Z " fill="#F7CED2" transform="translate(320,160)"/>
<path d="M0 0 C2.31 0 4.62 0 7 0 C7 6.6 7 13.2 7 20 C6.67 20 6.34 20 6 20 C6 14.06 6 8.12 6 2 C5.01 2 4.02 2 3 2 C2.04831317 4.85506049 1.8099054 6.90937282 1.68359375 9.88671875 C1.64169922 10.82451172 1.59980469 11.76230469 1.55664062 12.72851562 C1.49766602 14.19321289 1.49766602 14.19321289 1.4375 15.6875 C1.39431641 16.67556641 1.35113281 17.66363281 1.30664062 18.68164062 C1.20058346 21.12095546 1.09852286 23.56037113 1 26 C0.34 25.67 -0.32 25.34 -1 25 C-0.67 16.75 -0.34 8.5 0 0 Z " fill="#EE929B" transform="translate(230,173)"/>
<path d="M0 0 C0.66 0 1.32 0 2 0 C3.99785435 4.1205746 4.17835515 7.45194365 4 12 C3.34 11.01 2.68 10.02 2 9 C-0.58380177 8.74969023 -0.58380177 8.74969023 -3 9 C-4.42500059 12.99000166 -5.40075776 16.80530429 -6 21 C-6.33 21 -6.66 21 -7 21 C-7.05406122 19.06280622 -7.09282025 17.12518079 -7.125 15.1875 C-7.14820313 14.10855469 -7.17140625 13.02960938 -7.1953125 11.91796875 C-7 9 -7 9 -5 6 C-2.375 5.8125 -2.375 5.8125 0 6 C0 4.02 0 2.04 0 0 Z " fill="#ED8B95" transform="translate(292,164)"/>
<path d="M0 0 C2.57966596 2.57966596 3.33609844 5.09307892 4.625 8.5 C5.29402344 10.24796875 5.29402344 10.24796875 5.9765625 12.03125 C7 15 7 15 7 17 C9.31 17 11.62 17 14 17 C14.33 17.99 14.66 18.98 15 20 C11.37 20 7.74 20 4 20 C4.66 19.67 5.32 19.34 6 19 C5.01 15.7 4.02 12.4 3 9 C2.01 9 1.02 9 0 9 C0 6.03 0 3.06 0 0 Z " fill="#E85B69" transform="translate(213,179)"/>
<path d="M0 0 C0.33 0 0.66 0 1 0 C0.91621094 0.76183594 0.83242187 1.52367187 0.74609375 2.30859375 C0.10881725 8.77009348 0.03678972 14.57859811 1 21 C-0.65 21.66 -2.3 22.32 -4 23 C-3.01 22.01 -2.02 21.02 -1 20 C-1.99 19.34 -2.98 18.68 -4 18 C-3.34 17.67 -2.68 17.34 -2 17 C-2.53625 16.0925 -3.0725 15.185 -3.625 14.25 C-5 11 -5 11 -4.375 9.0625 C-3.694375 8.0415625 -3.694375 8.0415625 -3 7 C-2.43972221 5.75823047 -1.89914632 4.50744718 -1.375 3.25 C-0.92125 2.1775 -0.4675 1.105 0 0 Z " fill="#EC7682" transform="translate(233,209)"/>
<path d="M0 0 C0.52078125 0.14308594 1.0415625 0.28617188 1.578125 0.43359375 C4.61636346 1.14414952 7.66453687 1.59968053 10.75 2.0625 C11.92046875 2.23910156 13.0909375 2.41570312 14.296875 2.59765625 C15.18890625 2.73042969 16.0809375 2.86320313 17 3 C17 5.97 17 8.94 17 12 C16.01 12 15.02 12 14 12 C14 9.36 14 6.72 14 4 C9.38 4 4.76 4 0 4 C0 2.68 0 1.36 0 0 Z " fill="#E85D6B" transform="translate(187,183)"/>
<path d="M0 0 C6.27 0.33 12.54 0.66 19 1 C18 3 18 3 14.8125 4.125 C9.94049101 5.243166 6.70531996 5.81558781 2.125 3.625 C1.42375 3.08875 0.7225 2.5525 0 2 C0 1.34 0 0.68 0 0 Z " fill="#F9D8DC" transform="translate(253,236)"/>
<path d="M0 0 C2.0625 0.4375 2.0625 0.4375 4 1 C0.13635705 5.48717034 -3.74790208 9.87675353 -8 14 C-8.99 13.67 -9.98 13.34 -11 13 C-10.01 12.67 -9.02 12.34 -8 12 C-7.71125 11.0925 -7.4225 10.185 -7.125 9.25 C-5.80128018 5.42592052 -3.97973012 3.67411677 -1 1 C-0.67 0.67 -0.34 0.34 0 0 Z " fill="#F8D5D8" transform="translate(283,224)"/>
<path d="M0 0 C2.31 0 4.62 0 7 0 C7 8.58 7 17.16 7 26 C5.68 25.67 4.36 25.34 3 25 C3.99 25 4.98 25 6 25 C6 17.08 6 9.16 6 1 C1.81456127 3.46383936 1.81456127 3.46383936 1.390625 6.69921875 C1.34421875 7.68535156 1.2978125 8.67148438 1.25 9.6875 C1.19328125 10.68136719 1.1365625 11.67523438 1.078125 12.69921875 C1.05234375 13.45847656 1.0265625 14.21773437 1 15 C0.67 15 0.34 15 0 15 C0 10.05 0 5.1 0 0 Z " fill="#EE9099" transform="translate(249,171)"/>
<path d="M0 0 C2.31 0.33 4.62 0.66 7 1 C7.31799369 5.34591375 6.59630232 7.9071197 4.734375 11.7890625 C3.12408396 16.63706638 3.22111455 21.9296147 3 27 C2.67 27 2.34 27 2 27 C1.6309795 10.29157175 1.6309795 10.29157175 4 2 C2.68 1.34 1.36 0.68 0 0 Z " fill="#F1A5AC" transform="translate(179,197)"/>
<path d="M0 0 C0.99 0.33 1.98 0.66 3 1 C2.34 1.66 1.68 2.32 1 3 C0.09118984 5.7432802 -0.11945003 8.23259605 -0.09765625 11.109375 C-0.09443359 11.86347656 -0.09121094 12.61757812 -0.08789062 13.39453125 C-0.07951172 14.17183594 -0.07113281 14.94914063 -0.0625 15.75 C-0.05798828 16.54277344 -0.05347656 17.33554688 -0.04882812 18.15234375 C-0.03708565 20.10159508 -0.01915146 22.05080738 0 24 C-0.99 24 -1.98 24 -3 24 C-3.05429278 21.29139335 -3.09381211 18.58389099 -3.125 15.875 C-3.14175781 15.11445313 -3.15851563 14.35390625 -3.17578125 13.5703125 C-3.21537013 8.97800294 -2.81109779 5.30638808 -1 1 C-0.67 0.67 -0.34 0.34 0 0 Z " fill="#F1A7AE" transform="translate(289,172)"/>
<path d="M0 0 C0.66 0.33 1.32 0.66 2 1 C1.67 1.66 1.34 2.32 1 3 C0.34 3 -0.32 3 -1 3 C-1.03738281 3.64324219 -1.07476562 4.28648437 -1.11328125 4.94921875 C-1.66353455 12.51250426 -3.14346957 19.65561233 -5 27 C-5.99 26.67 -6.98 26.34 -8 26 C-7.34 26 -6.68 26 -6 26 C-5.85270744 24.58348431 -5.70729599 23.16677307 -5.5625 21.75 C-5.46710938 20.84507812 -5.37171875 19.94015625 -5.2734375 19.0078125 C-5.08580354 16.94383899 -4.94773558 14.87493963 -4.8515625 12.8046875 C-4.79742187 11.75539062 -4.74328125 10.70609375 -4.6875 9.625 C-4.65011719 8.64789063 -4.61273438 7.67078125 -4.57421875 6.6640625 C-3.86452067 3.37144962 -2.53698088 2.13693798 0 0 Z " fill="#F4B8BE" transform="translate(313,207)"/>
<path d="M0 0 C2.31 0 4.62 0 7 0 C7 0.33 7 0.66 7 1 C5.02 1 3.04 1 1 1 C0.67 5.29 0.34 9.58 0 14 C-2.31954564 10.90727248 -3.71720383 8.69759103 -5.1875 5.25 C-5.53167969 4.45078125 -5.87585938 3.6515625 -6.23046875 2.828125 C-6.48441406 2.22484375 -6.73835937 1.6215625 -7 1 C-5.02 1.66 -3.04 2.32 -1 3 C-0.67 2.01 -0.34 1.02 0 0 Z " fill="#EC7783" transform="translate(221,161)"/>
<path d="M0 0 C0.33 0.99 0.66 1.98 1 3 C-0.6875 5.6875 -0.6875 5.6875 -3 8 C-4.32 8 -5.64 8 -7 8 C-7 5.69 -7 3.38 -7 1 C-4.53721199 -0.231394 -2.7204945 -0.07159196 0 0 Z " fill="#E85F6D" transform="translate(225,206)"/>
<path d="M0 0 C0.66 0 1.32 0 2 0 C1.67 2.64 1.34 5.28 1 8 C0.34 6.68 -0.32 5.36 -1 4 C-3.10428384 9.12919186 -3.21755666 13.5610835 -3 19 C-1.35 18.67 0.3 18.34 2 18 C1.34 18.99 0.68 19.98 0 21 C-3.875 20.125 -3.875 20.125 -5 19 C-5.55661337 12.71669143 -5.6013759 7.40206386 -2 2 C-1.34 1.34 -0.68 0.68 0 0 Z " fill="#E9606E" transform="translate(197,205)"/>
<path d="M0 0 C3.96 0 7.92 0 12 0 C10.02 0.99 10.02 0.99 8 2 C8.99 2.99 9.98 3.98 11 5 C7.37 5 3.74 5 0 5 C0 3.35 0 1.7 0 0 Z " fill="#E96371" transform="translate(188,170)"/>
<path d="M0 0 C1.4306774 2.86135481 0.81123274 4.93584771 0.44140625 8.1015625 C0.30283203 9.31328125 0.16425781 10.525 0.02148438 11.7734375 C-0.12998047 13.04445312 -0.28144531 14.31546875 -0.4375 15.625 C-0.58509766 16.90375 -0.73269531 18.1825 -0.88476562 19.5 C-1.25113611 22.66733194 -1.62311401 25.83390493 -2 29 C-2.33 29 -2.66 29 -3 29 C-3.08811914 25.66683723 -3.14076197 22.33397953 -3.1875 19 C-3.22520508 17.59814453 -3.22520508 17.59814453 -3.26367188 16.16796875 C-3.32794222 10.04086275 -2.51516675 5.59806142 0 0 Z " fill="#F2AAB1" transform="translate(179,162)"/>
<path d="M0 0 C0.33 0 0.66 0 1 0 C0.835 1.299375 0.67 2.59875 0.5 3.9375 C-0.68955436 12.15636612 -0.68955436 12.15636612 1 20 C-0.32 19.67 -1.64 19.34 -3 19 C-3.55353075 5.18223235 -3.55353075 5.18223235 0 0 Z " fill="#F2A9B0" transform="translate(314,178)"/>
<path d="M0 0 C0.33 0 0.66 0 1 0 C0.67 7.92 0.34 15.84 0 24 C-0.33 24 -0.66 24 -1 24 C-2.75140931 15.89973192 -2.78085227 7.821147 0 0 Z " fill="#EB6D7A" transform="translate(267,200)"/>
<path d="M0 0 C1.8871875 0.0309375 1.8871875 0.0309375 3.8125 0.0625 C3.8125 0.3925 3.8125 0.7225 3.8125 1.0625 C2.1109375 1.495625 2.1109375 1.495625 0.375 1.9375 C-0.800625 2.30875 -1.97625 2.68 -3.1875 3.0625 C-3.5175 3.7225 -3.8475 4.3825 -4.1875 5.0625 C-2.2075 5.0625 -0.2275 5.0625 1.8125 5.0625 C-0.1875 7.0625 -0.1875 7.0625 -3.8125 7.1875 C-4.92625 7.14625 -6.04 7.105 -7.1875 7.0625 C-7.1875 5.0825 -7.1875 3.1025 -7.1875 1.0625 C-4.43671116 0.14557039 -2.82801087 -0.04636083 0 0 Z " fill="#E96370" transform="translate(282.1875,206.9375)"/>
<path d="M0 0 C2.97 0.495 2.97 0.495 6 1 C6 1.66 6 2.32 6 3 C11.94 3.33 17.88 3.66 24 4 C24 4.33 24 4.66 24 5 C6.14350797 5.3690205 6.14350797 5.3690205 -2 3 C-1.34 2.01 -0.68 1.02 0 0 Z " fill="#F5C1C6" transform="translate(248,232)"/>
<path d="M0 0 C0.66 0 1.32 0 2 0 C1.85811015 2.54194161 1.71160845 5.08347993 1.5625 7.625 C1.50352539 8.69427734 1.50352539 8.69427734 1.44335938 9.78515625 C1.19690319 13.91803682 0.76529947 17.92269024 0 22 C-0.33 22 -0.66 22 -1 22 C-1.02887814 18.52085059 -1.04675687 15.04173169 -1.0625 11.5625 C-1.07087891 10.56927734 -1.07925781 9.57605469 -1.08789062 8.55273438 C-1.09111328 7.60849609 -1.09433594 6.66425781 -1.09765625 5.69140625 C-1.10289307 4.81685791 -1.10812988 3.94230957 -1.11352539 3.04125977 C-1 1 -1 1 0 0 Z " fill="#ED7582" transform="translate(307,206)"/>
<path d="M0 0 C0.66 0 1.32 0 2 0 C2.33 2.97 2.66 5.94 3 9 C1.02 9.33 -0.96 9.66 -3 10 C-2.49287967 6.28111761 -1.88391785 3.26545761 0 0 Z " fill="#EE6D7B" transform="translate(250,210)"/>
<path d="M0 0 C2.97 0.33 5.94 0.66 9 1 C8.01 3.31 7.02 5.62 6 8 C5.01 7.67 4.02 7.34 3 7 C1.3125 3.4375 1.3125 3.4375 0 0 Z " fill="#F1A2A9" transform="translate(301,161)"/>
<path d="M0 0 C0.99 0 1.98 0 3 0 C6.22265625 5.2734375 6.22265625 5.2734375 7 7 C6.67 7.66 6.34 8.32 6 9 C4.68 7.68 3.36 6.36 2 5 C1.34 6.65 0.68 8.3 0 10 C-0.33 10 -0.66 10 -1 10 C-1.02689216 8.52093108 -1.04634621 7.04172517 -1.0625 5.5625 C-1.07410156 4.73878906 -1.08570313 3.91507813 -1.09765625 3.06640625 C-1 1 -1 1 0 0 Z " fill="#EA6774" transform="translate(218,222)"/>
<path d="M0 0 C0.33 0 0.66 0 1 0 C1 2.31 1 4.62 1 7 C-4.48675196 8.86783046 -9.22192976 9.2358396 -15 9 C-14.34 7.35 -13.68 5.7 -13 4 C-12.34 4.33 -11.68 4.66 -11 5 C-11 5.66 -11 6.32 -11 7 C-5.555 6.505 -5.555 6.505 0 6 C-0.33 4.35 -0.66 2.7 -1 1 C-0.67 0.67 -0.34 0.34 0 0 Z " fill="#EC6D7A" transform="translate(199,175)"/>
<path d="M0 0 C0.33 0 0.66 0 1 0 C1.33 1.98 1.66 3.96 2 6 C1.01 6 0.02 6 -1 6 C-1 8.97 -1 11.94 -1 15 C-0.34 15.33 0.32 15.66 1 16 C0.01 16 -0.98 16 -2 16 C-3.53995173 12.92009655 -3.22377524 10.41257239 -3 7 C-2.17748648 4.53245943 -1.14878622 2.34543853 0 0 Z " fill="#EC808B" transform="translate(196,208)"/>
<path d="M0 0 C0.66 0.33 1.32 0.66 2 1 C1.67 1.99 1.34 2.98 1 4 C0.92948886 6.73865287 0.90642235 9.45027588 0.9375 12.1875 C0.94201172 12.93708984 0.94652344 13.68667969 0.95117188 14.45898438 C0.96293646 16.30602383 0.98087135 18.15302213 1 20 C-1 17 -1 17 -1 13 C-1.66 12.67 -2.32 12.34 -3 12 C-3.34833144 7.12335991 -2.41685712 4.22949995 0 0 Z " fill="#F9D7DB" transform="translate(178,207)"/>
<path d="M0 0 C0.99 0 1.98 0 3 0 C3.33 1.32 3.66 2.64 4 4 C3.01 4.495 3.01 4.495 2 5 C1.34 6.32 0.68 7.64 0 9 C-2.97 9 -5.94 9 -9 9 C-9 8.67 -9 8.34 -9 8 C-6.36 8 -3.72 8 -1 8 C-1.020625 7.05125 -1.04125 6.1025 -1.0625 5.125 C-1 2 -1 2 0 0 Z " fill="#EA6B78" transform="translate(213,188)"/>
<path d="M0 0 C-0.33 1.32 -0.66 2.64 -1 4 C-0.01 4.33 0.98 4.66 2 5 C2.33 6.65 2.66 8.3 3 10 C0.625 9.4375 0.625 9.4375 -2 8 C-3.3125 4.375 -3.3125 4.375 -4 1 C-2 0 -2 0 0 0 Z " fill="#F17D89" transform="translate(219,181)"/>
<path d="M0 0 C1.18613892 0.00785522 1.18613892 0.00785522 2.39624023 0.01586914 C3.67724609 0.02070313 3.67724609 0.02070313 4.98413086 0.02563477 C5.88196289 0.03401367 6.77979492 0.04239258 7.70483398 0.05102539 C8.6065332 0.05553711 9.50823242 0.06004883 10.43725586 0.06469727 C12.67234712 0.07652315 14.90730835 0.09300319 17.14233398 0.11352539 C17.14233398 0.44352539 17.14233398 0.77352539 17.14233398 1.11352539 C16.49006836 1.17411133 15.83780273 1.23469727 15.16577148 1.29711914 C11.31614339 1.66618378 7.56069981 2.02830272 3.76733398 2.80102539 C0.81847944 3.1520795 -0.40572098 2.71672022 -2.85766602 1.11352539 C-1.85766602 0.11352539 -1.85766602 0.11352539 0 0 Z " fill="#EE7986" transform="translate(183.857666015625,160.886474609375)"/>
<path d="M0 0 C-0.99 0.495 -0.99 0.495 -2 1 C-1.34 1.37125 -0.68 1.7425 0 2.125 C2 4 2 4 2.25 7.1875 C2.1675 8.115625 2.085 9.04375 2 10 C1.67 10 1.34 10 1 10 C1 8.35 1 6.7 1 5 C0.13375 4.7834375 0.13375 4.7834375 -0.75 4.5625 C-2.83333333 4.04166667 -4.91666667 3.52083333 -7 3 C-6.67 2.01 -6.34 1.02 -6 0 C-3.50907189 -1.24546405 -2.58919267 -0.7767578 0 0 Z " fill="#EC7E89" transform="translate(285,209)"/>
<path d="M0 0 C0.66 0.33 1.32 0.66 2 1 C2.02689216 2.47906892 2.04634621 3.95827483 2.0625 5.4375 C2.07410156 6.26121094 2.08570313 7.08492187 2.09765625 7.93359375 C2 10 2 10 1 11 C-1.33297433 11.04092937 -3.66705225 11.04241723 -6 11 C-5.67 10.34 -5.34 9.68 -5 9 C-3.35 9 -1.7 9 0 9 C0 6.03 0 3.06 0 0 Z " fill="#EE7884" transform="translate(246,186)"/>
<path d="M0 0 C3.40077605 4.53436807 3.40077605 4.53436807 3.3125 8.5 C3.30863281 9.2528125 3.30476563 10.005625 3.30078125 10.78125 C2.97144914 13.21060894 2.20809315 14.88222715 1 17 C0.67 17 0.34 17 0 17 C0 11.39 0 5.78 0 0 Z " fill="#F9DADD" transform="translate(320,160)"/>
<path d="M0 0 C0.99 0.33 1.98 0.66 3 1 C2.34 2.98 1.68 4.96 1 7 C2.32 7.33 3.64 7.66 5 8 C5 9.65 5 11.3 5 13 C4.34 12.67 3.68 12.34 3 12 C3 10.68 3 9.36 3 8 C1.68 8.33 0.36 8.66 -1 9 C-0.67 6.03 -0.34 3.06 0 0 Z " fill="#EE6D7A" transform="translate(255,216)"/>
<path d="M0 0 C0.66 0.33 1.32 0.66 2 1 C1.67 5.62 1.34 10.24 1 15 C0.67 15 0.34 15 0 15 C-0.07347656 14.04287109 -0.07347656 14.04287109 -0.1484375 13.06640625 C-0.22320312 12.24011719 -0.29796875 11.41382813 -0.375 10.5625 C-0.44460937 9.73878906 -0.51421875 8.91507813 -0.5859375 8.06640625 C-0.72257813 7.38449219 -0.85921875 6.70257813 -1 6 C-1.66 5.67 -2.32 5.34 -3 5 C-2.01 3.35 -1.02 1.7 0 0 Z " fill="#F1808C" transform="translate(212,175)"/>
<path d="M0 0 C0.99 0.99 1.98 1.98 3 3 C3.66 3 4.32 3 5 3 C5.99 2.01 6.98 1.02 8 0 C7.01 2.97 6.02 5.94 5 9 C4.34 9 3.68 9 3 9 C2.01 6.03 1.02 3.06 0 0 Z " fill="#EA6774" transform="translate(302,165)"/>
<path d="M0 0 C8.25 0 16.5 0 25 0 C25 0.33 25 0.66 25 1 C23.56274129 1.16873478 22.12518162 1.33490737 20.6875 1.5 C19.88699219 1.5928125 19.08648437 1.685625 18.26171875 1.78125 C14.23634952 2.17057759 10.33379505 1.81851842 6.3125 1.5 C5.13300781 1.4071875 3.95351562 1.314375 2.73828125 1.21875 C1.83464844 1.1465625 0.93101562 1.074375 0 1 C0 0.67 0 0.34 0 0 Z " fill="#F09DA6" transform="translate(190,160)"/>
<path d="M0 0 C1.37562854 1.28965176 2.70766393 2.62689293 4 4 C4 4.66 4 5.32 4 6 C1.69 6.33 -0.62 6.66 -3 7 C-1.125 1.125 -1.125 1.125 0 0 Z " fill="#EF969F" transform="translate(220,226)"/>
<path d="M0 0 C0 1.98 0 3.96 0 6 C-0.66 5.67 -1.32 5.34 -2 5 C-2 4.34 -2 3.68 -2 3 C-3.98 3 -5.96 3 -8 3 C-8.33 3.66 -8.66 4.32 -9 5 C-8.67 3.68 -8.34 2.36 -8 1 C-5.10765685 0.17361624 -3.11257569 0 0 0 Z " fill="#EB6C79" transform="translate(255,226)"/>
<path d="M0 0 C1.32 0 2.64 0 4 0 C4 2.97 4 5.94 4 9 C3.34 9 2.68 9 2 9 C2 8.34 2 7.68 2 7 C1.34 7 0.68 7 0 7 C0.33 6.34 0.66 5.68 1 5 C0.67 4.67 0.34 4.34 0 4 C0 2.68 0 1.36 0 0 Z " fill="#F07A87" transform="translate(262,185)"/>
<path d="M0 0 C0.66 0.33 1.32 0.66 2 1 C-2.75 4 -2.75 4 -5 4 C-5.28875 4.61875 -5.5775 5.2375 -5.875 5.875 C-7 8 -7 8 -9 10 C-8.8125 7.1875 -8.8125 7.1875 -8 4 C-5.37232094 1.99466598 -3.13211099 1.044037 0 0 Z " fill="#F3B3B9" transform="translate(285,222)"/>
<path d="M0 0 C0.99 0.33 1.98 0.66 3 1 C2.278125 1.556875 1.55625 2.11375 0.8125 2.6875 C-1.97457299 4.97909334 -4.48641528 7.41459857 -7 10 C-5.6062718 5.56541027 -3.39417765 3.12621626 0 0 Z " fill="#F6C6CB" transform="translate(283,224)"/>
<path d="M0 0 C0.99 0 1.98 0 3 0 C2.67 0.99 2.34 1.98 2 3 C1.61496448 5.72897438 1.2601109 8.45128163 0.9375 11.1875 C0.84662109 11.93708984 0.75574219 12.68667969 0.66210938 13.45898438 C0.4386269 15.30565535 0.21894487 17.15278554 0 19 C-0.33 19 -0.66 19 -1 19 C-0.67 12.73 -0.34 6.46 0 0 Z " fill="#F09DA5" transform="translate(308,208)"/>
<path d="M0 0 C1.98 0 3.96 0 6 0 C5.34 2.31 4.68 4.62 4 7 C0 2.25 0 2.25 0 0 Z " fill="#EB7F89" transform="translate(205,198)"/>
<path d="M0 0 C-2.35953094 2.35953094 -3.77895617 2.49141413 -7 3 C-7.33 4.32 -7.66 5.64 -8 7 C-8.33 7 -8.66 7 -9 7 C-9 5.02 -9 3.04 -9 1 C-5.8035914 -0.06546953 -3.34252724 -0.07427838 0 0 Z " fill="#EC6F7C" transform="translate(283,221)"/>
<path d="M0 0 C2.97 0 5.94 0 9 0 C8.67 0.99 8.34 1.98 8 3 C4.37673261 4.2077558 3.35853631 3.54311128 0 2 C0 1.34 0 0.68 0 0 Z " fill="#F9DCDF" transform="translate(190,237)"/>
<path d="M0 0 C-0.33 0.66 -0.66 1.32 -1 2 C-4.52059568 3.17353189 -7.306493 3.20146402 -11 3 C-11.66 2.34 -12.32 1.68 -13 1 C-8.62426048 0.40667939 -4.42471556 -0.13827236 0 0 Z " fill="#F8D6D9" transform="translate(250,236)"/>
<path d="M0 0 C1.98 0 3.96 0 6 0 C5.67 1.32 5.34 2.64 5 4 C2.69 4.33 0.38 4.66 -2 5 C-1.34 3.35 -0.68 1.7 0 0 Z " fill="#F09BA3" transform="translate(247,229)"/>
<path d="M0 0 C0.99 0 1.98 0 3 0 C3.33 1.65 3.66 3.3 4 5 C4.99 5.33 5.98 5.66 7 6 C7 6.99 7 7.98 7 9 C5.35 9 3.7 9 2 9 C2 6.36 2 3.72 2 1 C1.34 0.67 0.68 0.34 0 0 Z " fill="#F1808C" transform="translate(229,162)"/>
<path d="M0 0 C0.66 0 1.32 0 2 0 C2 2.64 2 5.28 2 8 C1.01 8.495 1.01 8.495 0 9 C-0.87890625 2.84765625 -0.87890625 2.84765625 -1 1 C-0.67 0.67 -0.34 0.34 0 0 Z " fill="#ED8892" transform="translate(201,171)"/>
<path d="M0 0 C0 0.66 0 1.32 0 2 C-0.99 2 -1.98 2 -3 2 C-3.33 2.99 -3.66 3.98 -4 5 C-5.32 4.01 -6.64 3.02 -8 2 C-4.77208445 -0.1519437 -3.71599191 -0.20086443 0 0 Z " fill="#EE919B" transform="translate(290,208)"/>
<path d="M0 0 C0.99 0.33 1.98 0.66 3 1 C2.67 2.32 2.34 3.64 2 5 C2.99 5.33 3.98 5.66 5 6 C3.35 6.33 1.7 6.66 0 7 C0 4.69 0 2.38 0 0 Z " fill="#E75564" transform="translate(218,207)"/>
<path d="M0 0 C0.66 0.33 1.32 0.66 2 1 C2 2.98 2 4.96 2 7 C0.68 6.67 -0.64 6.34 -2 6 C-1.34 4.02 -0.68 2.04 0 0 Z " fill="#E74C5C" transform="translate(251,212)"/>
<path d="M0 0 C0.99 0 1.98 0 3 0 C3 0.66 3 1.32 3 2 C3.66 2 4.32 2 5 2 C5 2.66 5 3.32 5 4 C3.02 4 1.04 4 -1 4 C-0.67 2.68 -0.34 1.36 0 0 Z " fill="#F1818D" transform="translate(292,204)"/>
<path d="M0 0 C0.33 0.66 0.66 1.32 1 2 C1.99 2 2.98 2 4 2 C5.6875 4 5.6875 4 7 6 C4.625 6.1875 4.625 6.1875 2 6 C0 3 0 3 0 0 Z " fill="#F7D0D3" transform="translate(181,229)"/>
<path d="M0 0 C2.64 0 5.28 0 8 0 C6.515 1.98 6.515 1.98 5 4 C3.68 3.67 2.36 3.34 1 3 C1.66 3 2.32 3 3 3 C3 2.34 3 1.68 3 1 C2.01 0.67 1.02 0.34 0 0 Z " fill="#E85D6B" transform="translate(192,195)"/>
<path d="M0 0 C0.33 0 0.66 0 1 0 C1 2.97 1 5.94 1 9 C-2 5.375 -2 5.375 -2 2 C-1.34 2 -0.68 2 0 2 C0 1.34 0 0.68 0 0 Z " fill="#E75160" transform="translate(220,166)"/>
<path d="M0 0 C0.66 0 1.32 0 2 0 C4.125 4.625 4.125 4.625 3 8 C1.5 6.8125 1.5 6.8125 0 5 C-0.1875 2.3125 -0.1875 2.3125 0 0 Z " fill="#EA6774" transform="translate(292,164)"/>
<path d="M0 0 C1.485 0.99 1.485 0.99 3 2 C2.67 3.65 2.34 5.3 2 7 C1.01 6.67 0.02 6.34 -1 6 C-0.67 4.02 -0.34 2.04 0 0 Z " fill="#EB6F7C" transform="translate(202,163)"/>
</svg>
